#N canvas 860 3 1055 986 12;
#X obj 78 105 soundfiler;
#N canvas 0 50 450 250 (subpatch) 0;
#X array data1 156799 float 2;
#X coords 0 1 156799 -1 200 140 1;
#X restore 557 34 graph;
#X floatatom 73 141 8 0 0 0 - - - 0;
#X floatatom 150 143 7 0 0 0 - - - 0;
#X obj 55 560 tabread4~ data1;
#X obj 52 636 *~;
#X floatatom 106 638 5 0 0.2 0 - - - 0;
#X obj 52 679 dac~;
#X obj 54 530 vline~;
#X msg 52 496 \$1 \, \$2 \$3;
#X obj 51 274 bng 19 250 50 0 empty empty empty 0 -10 0 12 #fcfcfc #000000 #000000;
#X obj 52 461 pack f f f;
#X obj 84 404 r end;
#X floatatom 206 406 9 0 0 0 - - - 0;
#X obj 506 236 hsl 162 19 0 156799 0 0 empty empty empty -2 -10 0 12 #00ff04 #000000 #000000 0 1;
#X msg 235 197 range 0 \$1;
#X floatatom 501 261 8 0 0 0 - - - 0;
#X obj 503 290 s start;
#X obj 89 315 r start;
#X obj 51 348 f;
#X msg 170 495 stop;
#X msg 213 496 \$1 100;
#X obj 193 462 r start;
#X obj 190 369 expr abs($f2 - $f1) / 44.1;
#X obj 508 325 hsl 162 19 0 156799 0 0 empty empty empty -2 -10 0 12 #00ff04 #000000 #000000 0 1;
#X floatatom 503 350 8 0 0 0 - - - 0;
#X obj 505 379 s end;
#X obj 255 461 r end;
#X obj 300 298 r end;
#X obj 307 334 t b f;
#X obj 71 175 s Ns;
#X msg 75 72 read -resize cw_amen10_135.wav data1;
#X obj 510 584 random 3;
#X obj 507 618 sel 0 1 2;
#X obj 405 661 r Ns;
#X obj 406 696 / 3;
#X floatatom 407 733 7 0 0 0 - - - 0;
#X obj 471 703 * 2;
#X floatatom 479 734 8 0 0 0 - - - 0;
#X msg 348 690 0;
#X floatatom 351 733 5 0 0 0 - - - 0;
#X obj 346 788 f;
#X obj 410 787 f;
#X obj 481 784 f;
#X floatatom 434 845 8 0 0 0 - - - 0;
#X obj 679 665 r Ns;
#X obj 680 700 / 3;
#X floatatom 681 737 7 0 0 0 - - - 0;
#X obj 745 707 * 2;
#X floatatom 753 738 8 0 0 0 - - - 0;
#X floatatom 836 739 5 0 0 0 - - - 0;
#X obj 684 791 f;
#X obj 755 788 f;
#X obj 837 788 f;
#X floatatom 708 849 8 0 0 0 - - - 0;
#X floatatom 605 606 5 0 0 0 - - - 0;
#X obj 495 538 bng 19 250 50 0 empty empty empty 0 -10 0 12 #fcfcfc #000000 #000000;
#X connect 0 0 2 0;
#X connect 0 1 3 0;
#X connect 2 0 15 0;
#X connect 2 0 30 0;
#X connect 4 0 5 0;
#X connect 5 0 7 0;
#X connect 5 0 7 1;
#X connect 6 0 5 1;
#X connect 8 0 4 0;
#X connect 9 0 8 0;
#X connect 10 0 19 0;
#X connect 11 0 9 0;
#X connect 12 0 11 1;
#X connect 14 0 16 0;
#X connect 15 0 14 0;
#X connect 15 0 24 0;
#X connect 16 0 17 0;
#X connect 18 0 19 1;
#X connect 18 0 23 0;
#X connect 19 0 11 0;
#X connect 20 0 8 0;
#X connect 21 0 8 0;
#X connect 22 0 21 0;
#X connect 23 0 11 2;
#X connect 23 0 13 0;
#X connect 24 0 25 0;
#X connect 25 0 26 0;
#X connect 27 0 21 0;
#X connect 28 0 29 0;
#X connect 29 0 23 0;
#X connect 29 1 23 1;
#X connect 31 0 0 0;
#X connect 32 0 33 0;
#X connect 32 0 55 0;
#X connect 33 0 41 0;
#X connect 33 0 51 0;
#X connect 33 1 42 0;
#X connect 33 1 52 0;
#X connect 33 2 43 0;
#X connect 33 2 53 0;
#X connect 34 0 35 0;
#X connect 35 0 36 0;
#X connect 35 0 37 0;
#X connect 36 0 42 1;
#X connect 37 0 38 0;
#X connect 38 0 43 1;
#X connect 39 0 40 0;
#X connect 40 0 41 1;
#X connect 41 0 44 0;
#X connect 42 0 44 0;
#X connect 43 0 44 0;
#X connect 45 0 46 0;
#X connect 45 0 50 0;
#X connect 46 0 47 0;
#X connect 46 0 48 0;
#X connect 47 0 51 1;
#X connect 48 0 49 0;
#X connect 49 0 52 1;
#X connect 50 0 53 1;
#X connect 51 0 54 0;
#X connect 52 0 54 0;
#X connect 53 0 54 0;
#X connect 56 0 32 0;
