#N canvas 2493 92 937 671 12;
#X obj 237 403 bass_track;
#X obj 409 303 r~ bass;
#X obj 475 194 vsl 19 162 0 0.99 0 0 empty empty empty 0 -9 0 12 #c6ffc7 #000000 #000000 0 1;
#X floatatom 475 369 5 0 0 0 - - - 0;
#X obj 434 395 *~;
#X obj 425 431 dac~;
#X floatatom 238 371 5 0 0 0 - - - 0;
#X obj 226 248 bng 19 250 50 0 empty empty empty 0 -10 0 12 #fcfcfc #000000 #000000;
#X text 215 350 Bass fundamental (midi);
#X text 214 228 Bass Event;
#X floatatom 228 308 5 0 0 0 - - - 0;
#X obj 228 284 random 14;
#X obj 228 331 + 26;
#X obj 238 433 s~ bass_sound;
#N canvas 825 57 910 873 trackMUX 0;
#X text 201 15 sel;
#X obj 191 39 inlet;
#X obj 62 101 vradio 19 1 0 8 empty empty empty 0 -10 0 12 #fcfcfc #000000 #000000 0;
#X obj 205 119 expr if($i1==0 \, 1 \, 0);
#X obj 198 201 expr if($i1==1 \, 1 \, 0);
#X obj 205 271 expr if($i1==2 \, 1 \, 0);
#X floatatom 150 82 5 0 0 0 - - - 0;
#X obj 202 352 expr if($i1==3 \, 1 \, 0);
#X obj 336 154 t b f;
#X obj 337 233 t b f;
#X obj 341 303 t b f;
#X obj 342 387 t b f;
#X floatatom 391 180 5 0 0 0 - - - 0;
#X floatatom 396 265 5 0 0 0 - - - 0;
#X floatatom 398 335 5 0 0 0 - - - 0;
#X floatatom 401 419 5 0 0 0 - - - 0;
#X obj 349 483 t b f;
#X floatatom 408 515 5 0 0 0 - - - 0;
#X obj 209 448 expr if($i1==4 \, 1 \, 0);
#X obj 443 104 inlet~;
#X obj 530 91 inlet~;
#X obj 620 94 inlet~;
#X obj 501 240 *~;
#X text 443 82 drum;
#X text 539 65 bass;
#X text 626 68 synth;
#X obj 503 318 *~;
#X obj 505 407 *~;
#X obj 507 485 *~;
#X obj 630 325 *~;
#X obj 642 432 *~;
#X obj 610 580 *~;
#X obj 767 586 *~;
#X obj 755 321 *~;
#X obj 759 488 *~;
#X obj 395 707 outlet~;
#X obj 573 639 expr~ $v1 + $v2 + $v3;
#X obj 742 640 expr~ $v1 + $v2 + $v3;
#X obj 367 641 expr~ $v1 + $v2 + $v3 + $v4;
#X obj 609 705 outlet~;
#X obj 791 713 outlet~;
#X connect 1 0 6 0;
#X connect 2 0 6 0;
#X connect 3 0 8 0;
#X connect 4 0 9 0;
#X connect 5 0 10 0;
#X connect 6 0 3 0;
#X connect 6 0 4 0;
#X connect 6 0 5 0;
#X connect 6 0 7 0;
#X connect 6 0 18 0;
#X connect 7 0 11 0;
#X connect 8 1 12 0;
#X connect 9 1 13 0;
#X connect 10 1 14 0;
#X connect 11 1 15 0;
#X connect 12 0 22 1;
#X connect 13 0 26 1;
#X connect 13 0 29 1;
#X connect 13 0 33 0;
#X connect 14 0 27 1;
#X connect 14 0 30 1;
#X connect 15 0 28 1;
#X connect 15 0 34 1;
#X connect 16 1 17 0;
#X connect 17 0 31 1;
#X connect 17 0 32 1;
#X connect 18 0 16 0;
#X connect 19 0 22 0;
#X connect 19 0 26 0;
#X connect 19 0 27 0;
#X connect 19 0 28 0;
#X connect 20 0 29 0;
#X connect 20 0 30 0;
#X connect 20 0 31 0;
#X connect 21 0 33 1;
#X connect 21 0 34 0;
#X connect 21 0 32 0;
#X connect 22 0 38 0;
#X connect 26 0 38 1;
#X connect 27 0 38 2;
#X connect 28 0 38 3;
#X connect 29 0 36 2;
#X connect 30 0 36 1;
#X connect 31 0 36 0;
#X connect 32 0 37 2;
#X connect 33 0 37 0;
#X connect 34 0 37 1;
#X connect 36 0 39 0;
#X connect 37 0 40 0;
#X connect 38 0 35 0;
#X restore 55 316 pd trackMUX;
#X obj 89 347 s~ bass;
#X obj 110 281 r~ bass_sound;
#X text 11 201 receive markov secv;
#X obj 140 164 unpack s s b;
#X obj 218 57 unpack s s b;
#X obj 142 133 udpreceive 3002;
#X obj 218 17 udpreceive 3004;
#X obj 300 108 bng 19 250 50 0 empty empty empty 0 -10 0 12 #fcfcfc #000000 #000000;
#X obj 10 232 udpreceive 3006;
#X obj 10 283 unpack s s f;
#X obj 359 5 udpreceive 3008;
#X obj 359 45 unpack s s f;
#X connect 0 0 13 0;
#X connect 1 0 4 0;
#X connect 2 0 3 0;
#X connect 3 0 4 1;
#X connect 4 0 5 0;
#X connect 4 0 5 1;
#X connect 6 0 0 0;
#X connect 7 0 0 1;
#X connect 7 0 11 0;
#X connect 10 0 12 0;
#X connect 11 0 10 0;
#X connect 12 0 6 0;
#X connect 14 1 15 0;
#X connect 16 0 14 2;
#X connect 18 2 7 0;
#X connect 19 2 22 0;
#X connect 20 0 18 0;
#X connect 21 0 19 0;
#X connect 22 0 0 2;
#X connect 23 0 24 0;
#X connect 24 2 14 0;
#X connect 25 0 26 0;
#X connect 26 2 2 0;
#X coords 0 0 4 4 0 0 0;
