#N canvas 434 4 1920 976 12;
#X obj 186 594 bass_gen;
#X obj 284 572 hradio 19 1 0 4 empty empty empty 0 -10 0 12 #fcfcfc #000000 #000000 0;
#X obj 104 7 sel 1 2 3 4 5 6 7 8, f 45;
#X floatatom 110 56 5 0 0 0 - - - 0;
#X floatatom 161 55 5 0 0 0 - - - 0;
#X floatatom 209 54 5 0 0 0 - - - 0;
#X floatatom 258 53 5 0 0 0 - - - 0;
#X floatatom 306 55 5 0 0 0 - - - 0;
#X floatatom 354 54 5 0 0 0 - - - 0;
#X floatatom 399 55 5 0 0 0 - - - 0;
#X floatatom 443 55 5 0 0 0 - - - 0;
#X floatatom 194 107 5 0 0 0 - - - 0;
#X obj 194 140 sel 0 1 2 3;
#X floatatom 223 272 5 0 0 0 - - - 0;
#X floatatom 150 278 5 0 0 0 - - - 0;
#X floatatom 336 274 5 0 0 0 - - - 0;
#X floatatom 434 274 5 0 0 0 - - - 0;
#X obj 150 253 expr $f1;
#X obj 223 247 expr $f1 + 1;
#X obj 336 249 expr $f1 - 1;
#X obj 434 249 expr $f1 + 2;
#X floatatom 82 125 5 0 0 0 - - - 0;
#X floatatom 186 314 5 0 0 0 - - - 0;
#X obj 132 -47 f;
#X obj 171 -46 f;
#X obj 208 -46 f;
#X obj 247 -45 f;
#X obj 282 -45 f;
#X obj 321 -44 f;
#X obj 358 -44 f;
#X obj 397 -43 f;
#X floatatom 114 -80 5 0 0 0 - - - 0;
#X floatatom 165 -81 5 0 0 0 - - - 0;
#X floatatom 213 -82 5 0 0 0 - - - 0;
#X floatatom 262 -83 5 0 0 0 - - - 0;
#X floatatom 310 -81 5 0 0 0 - - - 0;
#X floatatom 358 -82 5 0 0 0 - - - 0;
#X floatatom 403 -81 5 0 0 0 - - - 0;
#X floatatom 447 -81 5 0 0 0 - - - 0;
#X obj 82 -144 bng 19 250 50 0 empty empty empty 0 -10 0 12 #fcfcfc #000000 #000000;
#X obj 42 -253 inlet;
#X obj 201 -249 inlet;
#X text 150 -224 incarcare line;
#N canvas 160 160 1468 609 markovLineGen 0;
#X obj 710 142 f;
#X obj 758 141 + 1;
#X floatatom 710 170 5 0 0 0 - - - 0;
#X obj 705 22 bng 19 250 50 0 empty empty empty 0 -10 0 12 #fcfcfc #000000 #000000;
#X msg 764 30 0;
#X msg 729 102 1;
#X obj 712 234 tgl 19 0 empty empty empty 0 -10 0 12 #fcfcfc #000000 #000000 0 1;
#X obj 713 265 sel 0 1;
#X obj 710 197 expr if($i1%8==0 \, 1 \, 0);
#X obj 62 420 markov;
#X obj 62 457 t b f;
#X obj 62 486 f;
#X floatatom 62 516 5 0 0 0 - - - 0;
#X obj 705 65 metro 1 200 msec;
#X obj 112 488 f;
#X floatatom 112 518 5 0 0 0 - - - 0;
#X obj 141 354 tgl 19 0 empty empty empty 0 -10 0 12 #fcfcfc #000000 #000000 0 1;
#X obj 142 385 sel 0 1;
#X obj 138 317 expr if($i1%8==7 \, 1 \, 0);
#X obj 172 428 bng 19 250 50 0 empty empty empty 0 -10 0 12 #fcfcfc #000000 #000000;
#X obj 113 457 del 20;
#X obj 284 488 f;
#X floatatom 284 518 5 0 0 0 - - - 0;
#X obj 313 354 tgl 19 0 empty empty empty 0 -10 0 12 #fcfcfc #000000 #000000 0 1;
#X obj 314 385 sel 0 1;
#X obj 344 428 bng 19 250 50 0 empty empty empty 0 -10 0 12 #fcfcfc #000000 #000000;
#X obj 285 457 del 20;
#X obj 463 491 f;
#X floatatom 463 521 5 0 0 0 - - - 0;
#X obj 492 357 tgl 19 0 empty empty empty 0 -10 0 12 #fcfcfc #000000 #000000 0 1;
#X obj 493 388 sel 0 1;
#X obj 523 431 bng 19 250 50 0 empty empty empty 0 -10 0 12 #fcfcfc #000000 #000000;
#X obj 464 460 del 20;
#X obj 674 -6 inlet;
#X obj 647 489 f;
#X floatatom 647 519 5 0 0 0 - - - 0;
#X obj 676 355 tgl 19 0 empty empty empty 0 -10 0 12 #fcfcfc #000000 #000000 0 1;
#X obj 677 386 sel 0 1;
#X obj 707 429 bng 19 250 50 0 empty empty empty 0 -10 0 12 #fcfcfc #000000 #000000;
#X obj 648 458 del 20;
#X obj 819 489 f;
#X floatatom 819 519 5 0 0 0 - - - 0;
#X obj 848 355 tgl 19 0 empty empty empty 0 -10 0 12 #fcfcfc #000000 #000000 0 1;
#X obj 849 386 sel 0 1;
#X obj 879 429 bng 19 250 50 0 empty empty empty 0 -10 0 12 #fcfcfc #000000 #000000;
#X obj 820 458 del 20;
#X obj 998 492 f;
#X floatatom 998 522 5 0 0 0 - - - 0;
#X obj 1027 358 tgl 19 0 empty empty empty 0 -10 0 12 #fcfcfc #000000 #000000 0 1;
#X obj 1028 389 sel 0 1;
#X obj 1058 432 bng 19 250 50 0 empty empty empty 0 -10 0 12 #fcfcfc #000000 #000000;
#X obj 999 461 del 20;
#X obj 310 317 expr if($i1%8==6 \, 1 \, 0);
#X obj 489 320 expr if($i1%8==5 \, 1 \, 0);
#X obj 845 318 expr if($i1%8==3 \, 1 \, 0);
#X obj 1024 321 expr if($i1%8==2 \, 1 \, 0);
#X obj 1179 494 f;
#X floatatom 1179 524 5 0 0 0 - - - 0;
#X obj 1208 360 tgl 19 0 empty empty empty 0 -10 0 12 #fcfcfc #000000 #000000 0 1;
#X obj 1209 391 sel 0 1;
#X obj 1239 434 bng 19 250 50 0 empty empty empty 0 -10 0 12 #fcfcfc #000000 #000000;
#X obj 1180 463 del 20;
#X obj 1206 324 expr if($i1%8==1 \, 1 \, 0);
#X obj 60 567 outlet;
#X obj 124 566 outlet;
#X obj 275 564 outlet;
#X obj 468 561 outlet;
#X obj 634 563 outlet;
#X obj 827 560 outlet;
#X obj 996 565 outlet;
#X obj 1189 562 outlet;
#X obj 673 318 expr if($i1%8==4 \, 1 \, 0);
#X connect 0 0 1 0;
#X connect 0 0 2 0;
#X connect 1 0 0 1;
#X connect 2 0 8 0;
#X connect 2 0 18 0;
#X connect 2 0 52 0;
#X connect 2 0 53 0;
#X connect 2 0 54 0;
#X connect 2 0 55 0;
#X connect 2 0 62 0;
#X connect 2 0 71 0;
#X connect 3 0 13 0;
#X connect 4 0 5 0;
#X connect 4 0 13 0;
#X connect 5 0 0 1;
#X connect 6 0 7 0;
#X connect 7 1 4 0;
#X connect 8 0 6 0;
#X connect 9 0 10 0;
#X connect 10 0 11 0;
#X connect 10 1 11 1;
#X connect 11 0 12 0;
#X connect 12 0 14 1;
#X connect 12 0 21 1;
#X connect 12 0 27 1;
#X connect 12 0 34 1;
#X connect 12 0 40 1;
#X connect 12 0 46 1;
#X connect 12 0 56 1;
#X connect 12 0 63 0;
#X connect 13 0 0 0;
#X connect 13 0 9 0;
#X connect 14 0 15 0;
#X connect 15 0 64 0;
#X connect 16 0 17 0;
#X connect 17 1 19 0;
#X connect 18 0 16 0;
#X connect 19 0 20 0;
#X connect 20 0 14 0;
#X connect 21 0 22 0;
#X connect 22 0 65 0;
#X connect 23 0 24 0;
#X connect 24 1 25 0;
#X connect 25 0 26 0;
#X connect 26 0 21 0;
#X connect 27 0 28 0;
#X connect 28 0 66 0;
#X connect 29 0 30 0;
#X connect 30 1 31 0;
#X connect 31 0 32 0;
#X connect 32 0 27 0;
#X connect 33 0 3 0;
#X connect 34 0 35 0;
#X connect 35 0 67 0;
#X connect 36 0 37 0;
#X connect 37 1 38 0;
#X connect 38 0 39 0;
#X connect 39 0 34 0;
#X connect 40 0 41 0;
#X connect 41 0 68 0;
#X connect 42 0 43 0;
#X connect 43 1 44 0;
#X connect 44 0 45 0;
#X connect 45 0 40 0;
#X connect 46 0 47 0;
#X connect 47 0 69 0;
#X connect 48 0 49 0;
#X connect 49 1 50 0;
#X connect 50 0 51 0;
#X connect 51 0 46 0;
#X connect 52 0 23 0;
#X connect 53 0 29 0;
#X connect 54 0 42 0;
#X connect 55 0 48 0;
#X connect 56 0 57 0;
#X connect 57 0 70 0;
#X connect 58 0 59 0;
#X connect 59 1 60 0;
#X connect 60 0 61 0;
#X connect 61 0 56 0;
#X connect 62 0 58 0;
#X connect 71 0 36 0;
#X restore 152 -125 pd markovLineGen;
#X f 44;
#X obj 162 829 outlet~;
#X obj 321 -247 inlet;
#X text 13 -226 freq ( midi );
#X text 154 -205 (pattern nou);
#X obj 535 -133 f;
#X obj 583 -134 + 1;
#X msg 585 -169 1;
#X obj 514 -188 bng 19 250 50 0 empty empty empty 0 -10 0 12 #fcfcfc #000000 #000000;
#X obj 534 -44 tgl 19 0 empty empty empty 0 -10 0 12 #fcfcfc #000000 #000000 0 1;
#X obj 534 -77 expr if($i1%8==0 \, 1 \, 0);
#X obj 532 -13 sel 1;
#X floatatom 535 -104 5 0 0 0 - - - 0;
#X text 606 -106 counter;
#X obj 316 440 sel 1 2 3 4 5 6 7 8, f 45;
#X obj 311 483 f;
#X floatatom 420 410 5 0 0 0 - - - 0;
#X obj 352 482 f;
#X obj 396 482 f;
#X obj 437 481 f;
#X obj 489 478 f;
#X obj 530 477 f;
#X obj 574 477 f;
#X obj 615 476 f;
#X floatatom 465 412 5 0 0 0 - - - 0;
#X floatatom 511 412 5 0 0 0 - - - 0;
#X floatatom 556 414 5 0 0 0 - - - 0;
#X floatatom 604 412 5 0 0 0 - - - 0;
#X floatatom 649 414 5 0 0 0 - - - 0;
#X floatatom 695 414 5 0 0 0 - - - 0;
#X floatatom 740 416 5 0 0 0 - - - 0;
#X obj 397 375 random 3;
#X obj 531 373 random 3;
#X obj 598 372 random 3;
#X obj 871 369 random 3;
#X obj 705 291 bng 19 250 50 0 empty empty empty 0 -10 0 12 #fcfcfc #000000 #000000;
#X floatatom 312 534 5 0 0 0 - - - 0;
#X text 433 330 random env for notes;
#X text 318 -220 play;
#X obj 670 372 random 4;
#X obj 736 371 random 4;
#X obj 463 374 random 4;
#X obj 804 370 random 4;
#X connect 0 0 44 0;
#X connect 1 0 0 2;
#X connect 2 0 3 0;
#X connect 2 1 4 0;
#X connect 2 2 5 0;
#X connect 2 3 6 0;
#X connect 2 4 7 0;
#X connect 2 5 8 0;
#X connect 2 6 9 0;
#X connect 2 7 10 0;
#X connect 3 0 11 0;
#X connect 4 0 11 0;
#X connect 5 0 11 0;
#X connect 6 0 11 0;
#X connect 7 0 11 0;
#X connect 8 0 11 0;
#X connect 9 0 11 0;
#X connect 10 0 11 0;
#X connect 11 0 12 0;
#X connect 12 0 14 0;
#X connect 12 1 13 0;
#X connect 12 2 15 0;
#X connect 12 3 16 0;
#X connect 13 0 22 0;
#X connect 14 0 22 0;
#X connect 15 0 22 0;
#X connect 16 0 22 0;
#X connect 17 0 14 0;
#X connect 18 0 13 0;
#X connect 19 0 15 0;
#X connect 20 0 16 0;
#X connect 21 0 17 0;
#X connect 21 0 18 0;
#X connect 21 0 19 0;
#X connect 21 0 20 0;
#X connect 22 0 0 0;
#X connect 23 0 3 0;
#X connect 24 0 4 0;
#X connect 25 0 5 0;
#X connect 26 0 6 0;
#X connect 27 0 7 0;
#X connect 28 0 8 0;
#X connect 29 0 9 0;
#X connect 30 0 10 0;
#X connect 31 0 23 1;
#X connect 32 0 24 1;
#X connect 33 0 25 1;
#X connect 34 0 26 1;
#X connect 35 0 27 1;
#X connect 36 0 28 1;
#X connect 37 0 29 1;
#X connect 38 0 30 1;
#X connect 39 0 23 0;
#X connect 39 0 24 0;
#X connect 39 0 25 0;
#X connect 39 0 26 0;
#X connect 39 0 27 0;
#X connect 39 0 28 0;
#X connect 39 0 29 0;
#X connect 39 0 30 0;
#X connect 39 0 43 0;
#X connect 39 0 78 0;
#X connect 40 0 21 0;
#X connect 41 0 39 0;
#X connect 43 0 31 0;
#X connect 43 1 32 0;
#X connect 43 2 33 0;
#X connect 43 3 34 0;
#X connect 43 4 35 0;
#X connect 43 5 36 0;
#X connect 43 6 37 0;
#X connect 43 7 38 0;
#X connect 45 0 51 0;
#X connect 48 0 49 0;
#X connect 48 0 55 0;
#X connect 49 0 48 1;
#X connect 50 0 48 1;
#X connect 51 0 48 0;
#X connect 51 0 0 1;
#X connect 52 0 54 0;
#X connect 53 0 52 0;
#X connect 54 0 50 0;
#X connect 55 0 53 0;
#X connect 55 0 2 0;
#X connect 55 0 57 0;
#X connect 57 0 58 0;
#X connect 57 1 60 0;
#X connect 57 2 61 0;
#X connect 57 3 62 0;
#X connect 57 4 63 0;
#X connect 57 5 64 0;
#X connect 57 6 65 0;
#X connect 57 7 66 0;
#X connect 58 0 79 0;
#X connect 59 0 58 1;
#X connect 60 0 79 0;
#X connect 61 0 79 0;
#X connect 62 0 79 0;
#X connect 63 0 79 0;
#X connect 64 0 79 0;
#X connect 65 0 79 0;
#X connect 66 0 79 0;
#X connect 67 0 60 1;
#X connect 68 0 61 1;
#X connect 69 0 62 1;
#X connect 70 0 63 1;
#X connect 71 0 64 1;
#X connect 72 0 65 1;
#X connect 73 0 66 1;
#X connect 74 0 59 0;
#X connect 75 0 68 0;
#X connect 76 0 69 0;
#X connect 77 0 73 0;
#X connect 78 0 74 0;
#X connect 78 0 75 0;
#X connect 78 0 76 0;
#X connect 78 0 77 0;
#X connect 78 0 82 0;
#X connect 78 0 83 0;
#X connect 78 0 84 0;
#X connect 78 0 85 0;
#X connect 79 0 1 0;
#X connect 82 0 70 0;
#X connect 83 0 71 0;
#X connect 84 0 67 0;
#X connect 85 0 72 0;
