#N canvas 2642 -23 1920 976 12;
#X obj 114 58 soundfiler;
#N canvas 0 50 450 250 (subpatch) 0;
#X array data1 253504 float 2;
#X coords 0 1 253504 -1 200 140 1;
#X restore 284 747 graph;
#X floatatom 109 94 8 0 0 0 - - - 0;
#X floatatom 186 96 7 0 0 0 - - - 0;
#X obj 55 560 tabread4~ data1;
#X obj 43 784 *~;
#X obj 54 530 vline~;
#X msg 52 496 \$1 \, \$2 \$3;
#X obj 52 461 pack f f f;
#X obj 84 404 r end;
#X floatatom 195 411 9 0 0 0 - - - 0;
#X obj 89 315 r start;
#X obj 51 348 f;
#X msg 170 495 stop;
#X obj 190 369 expr abs($f2 - $f1) / 44.1;
#X obj 300 298 r end;
#X obj 307 334 t b f;
#X obj 107 128 s Ns;
#X obj 471 512 r Ns;
#X obj 472 547 / 3;
#X floatatom 473 584 7 0 0 0 - - - 0;
#X obj 537 554 * 2;
#X floatatom 545 585 8 0 0 0 - - - 0;
#X msg 419 539 0;
#X floatatom 422 582 5 0 0 0 - - - 0;
#X obj 417 637 f;
#X obj 476 638 f;
#X obj 547 635 f;
#X floatatom 500 696 8 0 0 0 - - - 0;
#X obj 745 516 r Ns;
#X obj 746 551 / 3;
#X floatatom 747 588 7 0 0 0 - - - 0;
#X obj 811 558 * 2;
#X floatatom 819 589 8 0 0 0 - - - 0;
#X floatatom 902 590 5 0 0 0 - - - 0;
#X obj 750 642 f;
#X obj 821 639 f;
#X obj 903 639 f;
#X floatatom 774 700 8 0 0 0 - - - 0;
#X floatatom 689 432 5 0 0 0 - - - 0;
#X obj 498 726 s start;
#X obj 777 732 s end;
#X obj 574 383 random 6;
#X obj 572 468 sel 0 1 2 3 4 5;
#X obj 49 299 bng 19 250 50 0 empty empty empty 0 -10 0 12 #fcfcfc #000000 #000000;
#X obj 172 449 delay \$1;
#X obj 256 245 bng 19 250 50 0 empty empty empty 0 -10 0 12 #fcfcfc #000000 #000000;
#X obj 148 267 spigot;
#X obj 57 225 tgl 19 0 empty empty empty 0 -10 0 12 #fcfcfc #000000 #000000 0 1;
#X obj 106 -10 loadbang;
#X obj 160 608 sel 0 1;
#X obj 114 718 vline~;
#X obj 197 641 bng 19 250 50 0 empty empty empty 0 -10 0 12 #fcfcfc #000000 #000000;
#X obj 118 641 bng 19 250 50 0 empty empty empty 0 -10 0 12 #fcfcfc #000000 #000000;
#X msg 188 678 0 1000;
#X obj 292 130 soundfiler;
#X floatatom 287 166 8 0 0 0 - - - 0;
#X floatatom 364 168 7 0 0 0 - - - 0;
#X obj 285 200 s Ns;
#X obj 281 68 bng 19 250 50 0 empty empty empty 0 -10 0 12 #fcfcfc #000000 #000000;
#X obj 181 -12 bng 19 250 50 0 empty empty empty 0 -10 0 12 #fcfcfc #000000 #000000;
#X obj 624 120 soundfiler;
#X floatatom 619 156 8 0 0 0 - - - 0;
#X floatatom 696 158 7 0 0 0 - - - 0;
#X obj 617 190 s Ns;
#X obj 613 58 bng 19 250 50 0 empty empty empty 0 -10 0 12 #fcfcfc #000000 #000000;
#X obj 960 108 soundfiler;
#X floatatom 955 144 8 0 0 0 - - - 0;
#X floatatom 1032 146 7 0 0 0 - - - 0;
#X obj 953 178 s Ns;
#X obj 949 46 bng 19 250 50 0 empty empty empty 0 -10 0 12 #fcfcfc #000000 #000000;
#X obj 1002 399 soundfiler;
#X floatatom 997 435 8 0 0 0 - - - 0;
#X floatatom 1074 437 7 0 0 0 - - - 0;
#X obj 995 469 s Ns;
#X obj 991 337 bng 19 250 50 0 empty empty empty 0 -10 0 12 #fcfcfc #000000 #000000;
#X obj 1280 467 soundfiler;
#X floatatom 1275 503 8 0 0 0 - - - 0;
#X floatatom 1352 505 7 0 0 0 - - - 0;
#X obj 1273 537 s Ns;
#X obj 1269 405 bng 19 250 50 0 empty empty empty 0 -10 0 12 #fcfcfc #000000 #000000;
#X obj 1165 269 soundfiler;
#X floatatom 1160 305 8 0 0 0 - - - 0;
#X floatatom 1237 307 7 0 0 0 - - - 0;
#X obj 1158 339 s Ns;
#X obj 1154 207 bng 19 250 50 0 empty empty empty 0 -10 0 12 #fcfcfc #000000 #000000;
#X obj 814 289 soundfiler;
#X floatatom 809 325 8 0 0 0 - - - 0;
#X floatatom 886 327 7 0 0 0 - - - 0;
#X obj 807 359 s Ns;
#X obj 803 227 bng 19 250 50 0 empty empty empty 0 -10 0 12 #fcfcfc #000000 #000000;
#X obj 723 -51 sel 0 1 2 3 4 5 6 7, f 49;
#X obj 720 -89 inlet;
#X obj 422 -73 hradio 19 1 0 8 empty empty empty 0 -10 0 12 #fcfcfc #000000 #000000 0;
#X obj 539 290 bng 19 250 50 0 empty empty empty 0 -10 0 12 #fcfcfc #000000 #000000;
#X obj 99 945 *~;
#X obj 106 904 vline~;
#X msg 109 678 1 500;
#X obj 76 973 *~;
#X msg 114 862 0 200 \, 1 200 200;
#X obj 87 1014 outlet~;
#X obj 51 -81 inlet;
#X obj 764 983 outlet;
#X text 780 945 BPM;
#X floatatom 736 942 5 0 0 0 - - - 0;
#X msg 589 841 167;
#X msg 631 842 135;
#X msg 673 841 175;
#X msg 720 842 172;
#X msg 762 843 178;
#X msg 804 842 165;
#X msg 852 841 164;
#X msg 894 840 175;
#X obj 637 12 s b1;
#X obj 681 10 s b2;
#X obj 724 30 s b3;
#X obj 770 9 s b4;
#X obj 818 10 s b5;
#X obj 862 8 s b6;
#X obj 907 9 s b7;
#X obj 951 7 s b8;
#X obj 583 792 r b1;
#X obj 627 790 r b2;
#X obj 672 791 r b3;
#X obj 716 789 r b4;
#X obj 764 790 r b5;
#X obj 808 788 r b6;
#X obj 853 789 r b7;
#X obj 897 787 r b8;
#X msg 111 25 read -resize samples/cw_amen16_167.wav data1;
#X msg 289 97 read -resize samples/cw_amen10_135.wav data1;
#X msg 621 87 read -resize samples/cw_amen17_175.wav data1;
#X msg 957 75 read -resize samples/cw_amen18_178.wav data1;
#X msg 811 256 read -resize samples/cw_amen19_172.wav data1;
#X msg 1162 236 read -resize samples/cw_amen20_164.wav data1;
#X msg 999 366 read -resize samples/cw_amen08_165.wav data1;
#X msg 1277 434 read -resize samples/cw_amen14_175.wav data1;
#X connect 0 0 2 0;
#X connect 0 1 3 0;
#X connect 2 0 17 0;
#X connect 4 0 5 0;
#X connect 5 0 98 0;
#X connect 6 0 4 0;
#X connect 7 0 6 0;
#X connect 8 0 7 0;
#X connect 9 0 8 1;
#X connect 10 0 45 1;
#X connect 10 0 8 2;
#X connect 11 0 12 1;
#X connect 11 0 14 0;
#X connect 12 0 8 0;
#X connect 13 0 6 0;
#X connect 14 0 10 0;
#X connect 15 0 16 0;
#X connect 16 0 14 0;
#X connect 16 1 14 1;
#X connect 18 0 19 0;
#X connect 19 0 20 0;
#X connect 19 0 21 0;
#X connect 20 0 26 1;
#X connect 21 0 22 0;
#X connect 22 0 27 1;
#X connect 23 0 24 0;
#X connect 24 0 25 1;
#X connect 25 0 28 0;
#X connect 26 0 28 0;
#X connect 27 0 28 0;
#X connect 28 0 40 0;
#X connect 29 0 30 0;
#X connect 29 0 34 0;
#X connect 30 0 31 0;
#X connect 30 0 32 0;
#X connect 31 0 35 1;
#X connect 32 0 33 0;
#X connect 33 0 36 1;
#X connect 34 0 37 1;
#X connect 35 0 38 0;
#X connect 36 0 38 0;
#X connect 37 0 38 0;
#X connect 38 0 41 0;
#X connect 42 0 39 0;
#X connect 42 0 43 0;
#X connect 43 0 25 0;
#X connect 43 0 35 0;
#X connect 43 1 26 0;
#X connect 43 1 36 0;
#X connect 43 2 27 0;
#X connect 43 2 37 0;
#X connect 43 3 25 0;
#X connect 43 3 36 0;
#X connect 43 4 26 0;
#X connect 43 4 37 0;
#X connect 43 5 25 0;
#X connect 43 5 37 0;
#X connect 44 0 12 0;
#X connect 44 0 45 0;
#X connect 45 0 46 0;
#X connect 46 0 42 0;
#X connect 46 0 47 0;
#X connect 47 0 44 0;
#X connect 48 0 47 1;
#X connect 48 0 44 0;
#X connect 48 0 50 0;
#X connect 49 0 129 0;
#X connect 50 0 52 0;
#X connect 50 1 53 0;
#X connect 51 0 5 1;
#X connect 52 0 54 0;
#X connect 53 0 97 0;
#X connect 54 0 51 0;
#X connect 55 0 56 0;
#X connect 55 1 57 0;
#X connect 56 0 58 0;
#X connect 59 0 130 0;
#X connect 60 0 129 0;
#X connect 61 0 62 0;
#X connect 61 1 63 0;
#X connect 62 0 64 0;
#X connect 65 0 131 0;
#X connect 66 0 67 0;
#X connect 66 1 68 0;
#X connect 67 0 69 0;
#X connect 70 0 132 0;
#X connect 71 0 72 0;
#X connect 71 1 73 0;
#X connect 72 0 74 0;
#X connect 75 0 135 0;
#X connect 76 0 77 0;
#X connect 76 1 78 0;
#X connect 77 0 79 0;
#X connect 80 0 136 0;
#X connect 81 0 82 0;
#X connect 81 1 83 0;
#X connect 82 0 84 0;
#X connect 85 0 134 0;
#X connect 86 0 87 0;
#X connect 86 1 88 0;
#X connect 87 0 89 0;
#X connect 90 0 133 0;
#X connect 91 0 60 0;
#X connect 91 0 113 0;
#X connect 91 1 59 0;
#X connect 91 1 114 0;
#X connect 91 2 65 0;
#X connect 91 2 115 0;
#X connect 91 3 90 0;
#X connect 91 3 116 0;
#X connect 91 4 70 0;
#X connect 91 4 117 0;
#X connect 91 5 75 0;
#X connect 91 5 118 0;
#X connect 91 6 85 0;
#X connect 91 6 119 0;
#X connect 91 7 80 0;
#X connect 91 7 120 0;
#X connect 92 0 91 0;
#X connect 92 0 94 0;
#X connect 93 0 91 0;
#X connect 93 0 94 0;
#X connect 94 0 99 0;
#X connect 95 0 98 1;
#X connect 96 0 95 1;
#X connect 96 0 95 0;
#X connect 97 0 51 0;
#X connect 98 0 100 0;
#X connect 99 0 96 0;
#X connect 101 0 48 0;
#X connect 104 0 102 0;
#X connect 105 0 104 0;
#X connect 106 0 104 0;
#X connect 107 0 104 0;
#X connect 108 0 104 0;
#X connect 109 0 104 0;
#X connect 110 0 104 0;
#X connect 111 0 104 0;
#X connect 112 0 104 0;
#X connect 121 0 105 0;
#X connect 122 0 106 0;
#X connect 123 0 107 0;
#X connect 124 0 108 0;
#X connect 125 0 109 0;
#X connect 126 0 110 0;
#X connect 127 0 111 0;
#X connect 128 0 112 0;
#X connect 129 0 0 0;
#X connect 130 0 55 0;
#X connect 131 0 61 0;
#X connect 132 0 66 0;
#X connect 133 0 86 0;
#X connect 134 0 81 0;
#X connect 135 0 71 0;
#X connect 136 0 76 0;
