#N canvas 438 1278 2400 1246 12;
#X obj 39 77 drum_track;
#X obj 36 33 tgl 40 0 empty empty empty 0 -10 0 12 #fcfcfc #000000 #000000 0 1;
#X obj 110 30 bng 30 250 50 0 empty empty empty 0 -10 0 12 #fcfcfc #000000 #000000;
#X obj 939 114 r~ drum;
#X obj 1003 14 vsl 19 162 0 0.99 0 0 empty empty empty 0 -9 0 12 #c6ffc7 #000000 #000000 0 1;
#X floatatom 1003 189 5 0 0 0 - - - 0;
#X obj 962 215 *~;
#X obj 953 251 dac~;
#X floatatom 159 108 5 0 0 0 - - - 24;
#X obj 28 274 f;
#X obj 76 273 + 1;
#X floatatom 28 302 5 0 0 0 - - - 0;
#X msg 78 238 1;
#X obj 28 362 tgl 19 0 empty empty empty 0 -10 0 12 #fcfcfc #000000 #000000 0 1;
#X obj 28 329 expr if($i1%8==0 \, 1 \, 0);
#X obj 25 211 metro 1 155 permin;
#X msg 48 181 tempo \$1 permin;
#X text 32 8 ON/OFF;
#X text 227 98 BPM;
#X obj 91 399 tgl 19 0 empty empty empty 0 -10 0 12 #fcfcfc #000000 #000000 0 1;
#X obj 152 440 tgl 19 0 empty empty empty 0 -10 0 12 #fcfcfc #000000 #000000 0 1;
#X obj 90 366 expr if($i1%4==0 \, 1 \, 0);
#X obj 152 407 expr if($i1%2==0 \, 1 \, 0);
#X text 81 304 every 8 beat:;
#X text 124 347 every 4 beat:;
#X text 160 387 every 2 beat:;
#X text 134 257 Beat clock;
#X obj 26 393 sel 1;
#X obj 88 428 sel 1;
#X obj 152 474 sel 1;
#X obj 245 469 bng 19 250 50 0 empty empty empty 0 -10 0 12 #fcfcfc #000000 #000000;
#X text 220 445 every beat:;
#X obj 559 511 f;
#X obj 607 510 + 1;
#X floatatom 559 539 5 0 0 0 - - - 0;
#X msg 609 475 1;
#X obj 559 566 expr if($i1==$i2 \, 1 \, 0);
#X obj 700 513 t b f;
#X obj 562 597 tgl 19 0 empty empty empty 0 -10 0 12 #fcfcfc #000000 #000000 0 1;
#X obj 243 503 s clk;
#X obj 553 442 r clk;
#X obj 562 621 sel 1;
#X obj 161 153 s bpm;
#X obj 153 507 s 2beat;
#X obj 89 453 s 4beat;
#X obj 23 419 s 8beat;
#X msg 716 40 10;
#X floatatom 716 64 5 0 0 0 - - - 0;
#X msg 781 39 30;
#X floatatom 781 63 5 0 0 0 - - - 0;
#X obj 719 4 loadbang;
#X text 803 -3 durate secvente;
#X text 797 14 minim si maxim (s);
#X obj 657 38 r bpm;
#X floatatom 657 62 5 0 0 0 - - - 0;
#X obj 657 85 / 60;
#X floatatom 657 109 5 0 0 0 - - - 0;
#X obj 733 135 t b f;
#X obj 733 173 *;
#X floatatom 732 206 5 0 0 0 - - - 0;
#X obj 794 133 t b f;
#X obj 794 171 *;
#X floatatom 793 204 5 0 0 0 - - - 0;
#X obj 733 239 -;
#X floatatom 733 263 5 0 0 0 - - - 0;
#X obj 733 286 int;
#X floatatom 733 310 5 0 0 0 - - - 0;
#X obj 696 340 random;
#X floatatom 696 364 5 0 0 0 - - - 0;
#X obj 622 321 bng 19 250 50 0 empty empty empty 0 -10 0 12 #fcfcfc #000000 #000000;
#X obj 699 408 +;
#X obj 753 349 t b f;
#X floatatom 699 432 5 0 0 0 - - - 0;
#X obj 699 455 int;
#X floatatom 699 479 5 0 0 0 - - - 0;
#X text 744 479 durata secventei in beats;
#X text 542 417 clk al secventei;
#X text 153 32 reset;
#X obj 47 116 s~ drum_sound;
#X obj 328 118 markov2;
#X text 487 89 0 ---> D;
#X text 487 109 1 ---> D + S + B;
#X text 488 132 2 ---> D + B;
#X text 487 155 3 ---> D + S;
#X text 488 177 4 ---> B + S;
#X text 443 65 generare secvente;
#X obj 561 655 s reset_secv;
#X obj 329 68 r reset_secv;
#X obj 329 92 bng 19 250 50 0 empty empty empty 0 -10 0 12 #fcfcfc #000000 #000000;
#X floatatom 328 142 5 0 0 0 - - - 0;
#X obj 324 239 == 0;
#X obj 324 263 tgl 19 0 empty empty empty 0 -10 0 12 #fcfcfc #000000 #000000 0 1;
#X obj 363 263 tgl 19 0 empty empty empty 0 -10 0 12 #fcfcfc #000000 #000000 0 1;
#X obj 401 263 tgl 19 0 empty empty empty 0 -10 0 12 #fcfcfc #000000 #000000 0 1;
#X obj 440 263 tgl 19 0 empty empty empty 0 -10 0 12 #fcfcfc #000000 #000000 0 1;
#X obj 477 264 tgl 19 0 empty empty empty 0 -10 0 12 #fcfcfc #000000 #000000 0 1;
#X obj 363 239 == 1;
#X obj 401 239 == 2;
#X obj 440 239 == 3;
#X obj 477 240 == 4;
#X obj 324 287 sel 1;
#X obj 324 311 s reset;
#X obj 169 68 r reset;
#X text 582 290 reset lungime secv;
#N canvas 825 57 910 873 trackMUX 0;
#X text 201 15 sel;
#X obj 191 39 inlet;
#X obj 62 101 vradio 19 1 0 8 empty empty empty 0 -10 0 12 #fcfcfc #000000 #000000 0;
#X obj 205 119 expr if($i1==0 \, 1 \, 0);
#X obj 198 201 expr if($i1==1 \, 1 \, 0);
#X obj 205 271 expr if($i1==2 \, 1 \, 0);
#X floatatom 150 82 5 0 0 0 - - - 0;
#X obj 202 352 expr if($i1==3 \, 1 \, 0);
#X obj 336 154 t b f;
#X obj 337 233 t b f;
#X obj 341 303 t b f;
#X obj 342 387 t b f;
#X floatatom 391 180 5 0 0 0 - - - 0;
#X floatatom 396 265 5 0 0 0 - - - 0;
#X floatatom 398 335 5 0 0 0 - - - 0;
#X floatatom 401 419 5 0 0 0 - - - 0;
#X obj 349 483 t b f;
#X floatatom 408 515 5 0 0 0 - - - 0;
#X obj 209 448 expr if($i1==4 \, 1 \, 0);
#X obj 443 104 inlet~;
#X obj 530 91 inlet~;
#X obj 620 94 inlet~;
#X obj 501 240 *~;
#X text 443 82 drum;
#X text 539 65 bass;
#X text 626 68 synth;
#X obj 503 318 *~;
#X obj 505 407 *~;
#X obj 507 485 *~;
#X obj 630 325 *~;
#X obj 642 432 *~;
#X obj 610 580 *~;
#X obj 767 586 *~;
#X obj 755 321 *~;
#X obj 759 488 *~;
#X obj 395 707 outlet~;
#X obj 573 639 expr~ $v1 + $v2 + $v3;
#X obj 742 640 expr~ $v1 + $v2 + $v3;
#X obj 367 641 expr~ $v1 + $v2 + $v3 + $v4;
#X obj 609 705 outlet~;
#X obj 791 713 outlet~;
#X connect 1 0 6 0;
#X connect 2 0 6 0;
#X connect 3 0 8 0;
#X connect 4 0 9 0;
#X connect 5 0 10 0;
#X connect 6 0 3 0;
#X connect 6 0 4 0;
#X connect 6 0 5 0;
#X connect 6 0 7 0;
#X connect 6 0 18 0;
#X connect 7 0 11 0;
#X connect 8 1 12 0;
#X connect 9 1 13 0;
#X connect 10 1 14 0;
#X connect 11 1 15 0;
#X connect 12 0 22 1;
#X connect 13 0 26 1;
#X connect 13 0 29 1;
#X connect 13 0 33 0;
#X connect 14 0 27 1;
#X connect 14 0 30 1;
#X connect 15 0 28 1;
#X connect 15 0 34 1;
#X connect 16 1 17 0;
#X connect 17 0 31 1;
#X connect 17 0 32 1;
#X connect 18 0 16 0;
#X connect 19 0 22 0;
#X connect 19 0 26 0;
#X connect 19 0 27 0;
#X connect 19 0 28 0;
#X connect 20 0 29 0;
#X connect 20 0 30 0;
#X connect 20 0 31 0;
#X connect 21 0 33 1;
#X connect 21 0 34 0;
#X connect 21 0 32 0;
#X connect 22 0 38 0;
#X connect 26 0 38 1;
#X connect 27 0 38 2;
#X connect 28 0 38 3;
#X connect 29 0 36 2;
#X connect 30 0 36 1;
#X connect 31 0 36 0;
#X connect 32 0 37 2;
#X connect 33 0 37 0;
#X connect 34 0 37 1;
#X connect 36 0 39 0;
#X connect 37 0 40 0;
#X connect 38 0 35 0;
#X restore 369 549 pd trackMUX;
#X obj 339 598 s~ drum;
#X obj 347 436 r~ drum_sound;
#X obj 221 32 bng 19 250 50 0 empty empty empty 0 -10 0 12 #fcfcfc #000000 #000000;
#X obj 256 15 loadbang;
#X obj 905 606 udpsend 3001;
#X obj 908 572 oscformat wek inputs;
#X obj 1062 574 oscformat wek inputs;
#X obj 1121 221 oscformat wek inputs;
#X obj 1275 223 oscformat wek inputs;
#X obj 954 397 oscformat wek inputs;
#X obj 1108 399 oscformat wek inputs;
#X obj 1059 608 udpsend 3002;
#X obj 1026 492 r reset;
#X obj 1118 255 udpsend 3003;
#X obj 1272 257 udpsend 3004;
#X obj 1277 88 r clk;
#X obj 1125 97 r 2beat;
#X obj 443 367 s markov;
#X obj 985 309 r markov;
#X msg 1026 516 1;
#X floatatom 1026 540 5 0 0 0 - - - 0;
#X obj 951 431 udpsend 3005;
#X obj 1105 433 udpsend 3006;
#X floatatom 984 364 5 0 0 0 - - - 0;
#X msg 1126 144 1;
#X floatatom 1126 168 5 0 0 0 - - - 0;
#X msg 1278 134 1;
#X floatatom 1278 158 5 0 0 0 - - - 0;
#X obj 282 285 bng 19 250 50 0 empty empty empty 0 -10 0 12 #fcfcfc #000000 #000000;
#X text 1288 419 Transmitere de parametrii catre celelatle trackuri;
#X text 26 576 Aici se afla doar trackul de tobe;
#X text 28 601 Parametrii sunt generati si transmisi catre;
#X text 29 624 bassReaper si synthReaper;
#X obj 1449 225 oscformat wek inputs;
#X obj 1603 227 oscformat wek inputs;
#X obj 1452 15 vsl 19 162 0 5 0 0 empty empty empty 0 -9 0 12 #c6ffc7 #000000 #000000 0 1;
#X floatatom 1452 190 5 0 0 0 - - - 0;
#X obj 1608 13 vsl 19 162 0 0.99 0 0 empty empty empty 0 -9 0 12 #c6ffc7 #000000 #000000 0 1;
#X floatatom 1608 188 5 0 0 0 - - - 0;
#X obj 1446 259 udpsend 3007;
#X obj 1600 261 udpsend 3008;
#X text 1484 95 synth;
#X text 1644 93 bass;
#X connect 0 0 78 0;
#X connect 0 1 8 0;
#X connect 1 0 15 0;
#X connect 1 0 0 0;
#X connect 2 0 0 1;
#X connect 3 0 6 0;
#X connect 4 0 5 0;
#X connect 5 0 6 1;
#X connect 6 0 7 0;
#X connect 6 0 7 1;
#X connect 8 0 16 0;
#X connect 8 0 42 0;
#X connect 9 0 10 0;
#X connect 9 0 11 0;
#X connect 10 0 9 1;
#X connect 11 0 14 0;
#X connect 11 0 21 0;
#X connect 11 0 22 0;
#X connect 11 0 30 0;
#X connect 12 0 9 1;
#X connect 13 0 27 0;
#X connect 14 0 13 0;
#X connect 15 0 9 0;
#X connect 16 0 15 0;
#X connect 19 0 28 0;
#X connect 20 0 29 0;
#X connect 21 0 19 0;
#X connect 22 0 20 0;
#X connect 27 0 12 0;
#X connect 27 0 45 0;
#X connect 28 0 44 0;
#X connect 29 0 43 0;
#X connect 30 0 39 0;
#X connect 32 0 33 0;
#X connect 32 0 34 0;
#X connect 33 0 32 1;
#X connect 34 0 36 0;
#X connect 35 0 32 1;
#X connect 36 0 38 0;
#X connect 37 0 36 0;
#X connect 37 1 36 1;
#X connect 38 0 41 0;
#X connect 40 0 32 0;
#X connect 41 0 35 0;
#X connect 41 0 86 0;
#X connect 41 0 69 0;
#X connect 46 0 47 0;
#X connect 47 0 57 0;
#X connect 48 0 49 0;
#X connect 49 0 60 0;
#X connect 50 0 46 0;
#X connect 50 0 48 0;
#X connect 53 0 54 0;
#X connect 54 0 55 0;
#X connect 55 0 56 0;
#X connect 56 0 58 0;
#X connect 56 0 61 0;
#X connect 57 0 58 0;
#X connect 57 1 58 1;
#X connect 58 0 59 0;
#X connect 59 0 63 1;
#X connect 59 0 71 0;
#X connect 60 0 61 0;
#X connect 60 1 61 1;
#X connect 61 0 62 0;
#X connect 62 0 63 0;
#X connect 63 0 64 0;
#X connect 64 0 65 0;
#X connect 65 0 66 0;
#X connect 66 0 67 1;
#X connect 67 0 68 0;
#X connect 68 0 70 0;
#X connect 69 0 67 0;
#X connect 69 0 35 0;
#X connect 70 0 72 0;
#X connect 71 0 70 0;
#X connect 71 1 70 1;
#X connect 72 0 73 0;
#X connect 73 0 74 0;
#X connect 74 0 37 0;
#X connect 79 0 89 0;
#X connect 87 0 88 0;
#X connect 88 0 79 0;
#X connect 89 0 90 0;
#X connect 89 0 96 0;
#X connect 89 0 97 0;
#X connect 89 0 98 0;
#X connect 89 0 99 0;
#X connect 89 0 104 0;
#X connect 89 0 122 0;
#X connect 90 0 91 0;
#X connect 91 0 100 0;
#X connect 96 0 92 0;
#X connect 97 0 93 0;
#X connect 98 0 94 0;
#X connect 99 0 95 0;
#X connect 100 0 101 0;
#X connect 102 0 2 0;
#X connect 104 0 105 0;
#X connect 106 0 104 1;
#X connect 107 0 0 2;
#X connect 108 0 107 0;
#X connect 110 0 109 0;
#X connect 111 0 116 0;
#X connect 112 0 118 0;
#X connect 113 0 119 0;
#X connect 114 0 126 0;
#X connect 115 0 127 0;
#X connect 117 0 124 0;
#X connect 120 0 131 0;
#X connect 121 0 129 0;
#X connect 123 0 128 0;
#X connect 124 0 125 0;
#X connect 125 0 110 0;
#X connect 125 0 111 0;
#X connect 128 0 114 0;
#X connect 128 0 115 0;
#X connect 129 0 130 0;
#X connect 130 0 112 0;
#X connect 131 0 132 0;
#X connect 132 0 113 0;
#X connect 133 0 101 0;
#X connect 138 0 144 0;
#X connect 139 0 145 0;
#X connect 140 0 141 0;
#X connect 141 0 138 0;
#X connect 142 0 143 0;
#X connect 143 0 139 0;
#X coords 0 0 4 4 0 0 0;
