#N canvas 21 0 1872 966 12;
#X obj 436 564 hradio 19 1 0 8 empty empty empty 0 -10 0 12 #fcfcfc #000000 #000000 0;
#X obj 327 548 tgl 19 0 empty empty empty 0 -10 0 12 #fcfcfc #000000 #000000 0 1;
#X obj 430 486 w8random, f 55;
#X floatatom 436 534 5 0 0 0 - - - 0;
#X obj 413 431 bng 19 250 50 0 empty empty empty 0 -10 0 12 #fcfcfc #000000 #000000;
#X obj 537 355 wNorm, f 36;
#X obj 533 132 vsl 19 162 0 127 0 0 empty empty empty 0 -9 0 12 #fcfcfc #000000 #000000 0 1;
#X obj 569 131 vsl 19 162 0 127 0 0 empty empty empty 0 -9 0 12 #fcfcfc #000000 #000000 0 1;
#X obj 602 132 vsl 19 162 0 127 0 0 empty empty empty 0 -9 0 12 #fcfcfc #000000 #000000 0 1;
#X obj 638 131 vsl 19 162 0 127 0 0 empty empty empty 0 -9 0 12 #fcfcfc #000000 #000000 0 1;
#X obj 674 129 vsl 19 162 0 127 0 0 empty empty empty 0 -9 0 12 #fcfcfc #000000 #000000 0 1;
#X obj 710 128 vsl 19 162 0 127 0 0 empty empty empty 0 -9 0 12 #fcfcfc #000000 #000000 0 1;
#X obj 743 129 vsl 19 162 0 127 0 0 empty empty empty 0 -9 0 12 #fcfcfc #000000 #000000 0 1;
#X obj 779 128 vsl 19 162 0 127 0 0 empty empty empty 0 -9 0 12 #fcfcfc #000000 #000000 0 1;
#X floatatom 453 435 5 0 0 0 - - - 0;
#X floatatom 503 435 5 0 0 0 - - - 0;
#X floatatom 550 434 5 0 0 0 - - - 0;
#X floatatom 600 433 5 0 0 0 - - - 0;
#X floatatom 650 433 5 0 0 0 - - - 0;
#X floatatom 697 432 5 0 0 0 - - - 0;
#X floatatom 752 434 5 0 0 0 - - - 0;
#X floatatom 799 433 5 0 0 0 - - - 0;
#X msg 668 82 80;
#X msg 527 83 100;
#X msg 562 86 15;
#X msg 599 86 30;
#X msg 708 83 60;
#X msg 634 84 80;
#X msg 740 83 20;
#X msg 779 87 40;
#X obj 598 36 bng 19 250 50 0 empty empty empty 0 -10 0 12 #fcfcfc #000000 #000000;
#X obj 712 26 loadbang;
#X obj 358 613 drum_gen;
#X obj 282 344 inlet;
#X obj 369 348 inlet;
#X text 414 120 control break;
#X obj 358 800 outlet~;
#X obj 450 743 outlet;
#X obj 353 700 clip~ -0.2 0.2;
#X obj 625 3 inlet;
#X connect 0 0 32 1;
#X connect 1 0 32 0;
#X connect 2 0 3 0;
#X connect 3 0 0 0;
#X connect 4 0 2 0;
#X connect 5 0 14 0;
#X connect 5 1 15 0;
#X connect 5 2 16 0;
#X connect 5 3 17 0;
#X connect 5 4 18 0;
#X connect 5 5 19 0;
#X connect 5 6 20 0;
#X connect 5 7 21 0;
#X connect 6 0 5 0;
#X connect 7 0 5 1;
#X connect 8 0 5 2;
#X connect 9 0 5 3;
#X connect 10 0 5 4;
#X connect 11 0 5 5;
#X connect 12 0 5 6;
#X connect 13 0 5 7;
#X connect 14 0 2 1;
#X connect 15 0 2 2;
#X connect 16 0 2 3;
#X connect 17 0 2 4;
#X connect 18 0 2 5;
#X connect 19 0 2 6;
#X connect 20 0 2 7;
#X connect 21 0 2 8;
#X connect 22 0 10 0;
#X connect 23 0 6 0;
#X connect 24 0 7 0;
#X connect 25 0 8 0;
#X connect 26 0 11 0;
#X connect 27 0 9 0;
#X connect 28 0 12 0;
#X connect 29 0 13 0;
#X connect 30 0 23 0;
#X connect 30 0 24 0;
#X connect 30 0 25 0;
#X connect 30 0 27 0;
#X connect 30 0 22 0;
#X connect 30 0 26 0;
#X connect 30 0 28 0;
#X connect 30 0 29 0;
#X connect 31 0 23 0;
#X connect 31 0 24 0;
#X connect 31 0 25 0;
#X connect 31 0 27 0;
#X connect 31 0 22 0;
#X connect 31 0 26 0;
#X connect 31 0 28 0;
#X connect 31 0 29 0;
#X connect 32 0 38 0;
#X connect 32 1 37 0;
#X connect 33 0 1 0;
#X connect 34 0 4 0;
#X connect 38 0 36 0;
#X connect 39 0 30 0;
