#N canvas 91 283 1613 743 12;
#X floatatom 149 128 5 0 0 0 - - - 0;
#X floatatom 195 129 5 0 0 0 - - - 0;
#X floatatom 250 131 5 0 0 0 - - - 0;
#X floatatom 297 130 5 0 0 0 - - - 0;
#X obj 265 39 loadbang;
#X floatatom 127 217 5 0 0 0 - - - 0;
#X obj 183 46 bng 19 250 50 0 empty empty empty 0 -10 0 12 #fcfcfc #000000 #000000;
#X floatatom 438 134 5 0 0 0 - - - 0;
#X floatatom 485 133 5 0 0 0 - - - 0;
#X floatatom 540 135 5 0 0 0 - - - 0;
#X floatatom 587 134 5 0 0 0 - - - 0;
#X obj 541 51 loadbang;
#X floatatom 417 221 5 0 0 0 - - - 0;
#X obj 469 58 bng 19 250 50 0 empty empty empty 0 -10 0 12 #fcfcfc #000000 #000000;
#X floatatom 707 124 5 0 0 0 - - - 0;
#X floatatom 754 123 5 0 0 0 - - - 0;
#X floatatom 809 125 5 0 0 0 - - - 0;
#X floatatom 856 124 5 0 0 0 - - - 0;
#X obj 809 41 loadbang;
#X floatatom 731 209 5 0 0 0 - - - 0;
#X obj 738 48 bng 19 250 50 0 empty empty empty 0 -10 0 12 #fcfcfc #000000 #000000;
#X floatatom 979 123 5 0 0 0 - - - 0;
#X floatatom 1026 122 5 0 0 0 - - - 0;
#X floatatom 1081 124 5 0 0 0 - - - 0;
#X floatatom 1128 123 5 0 0 0 - - - 0;
#X obj 1057 47 loadbang;
#X floatatom 995 207 5 0 0 0 - - - 0;
#X obj 1010 47 bng 19 250 50 0 empty empty empty 0 -10 0 12 #fcfcfc #000000 #000000;
#X obj 326 502 t b f;
#X obj 166 418 f;
#X obj 100 46 bng 19 250 50 0 empty empty empty 0 -10 0 12 #fcfcfc #000000 #000000;
#X obj 146 453 f;
#X floatatom 192 499 5 0 0 0 - - - 0;
#X obj 111 406 bng 19 250 50 0 empty empty empty 0 -10 0 12 #fcfcfc #000000 #000000;
#X floatatom 241 417 5 0 0 0 - - - 0;
#X obj 312 406 f;
#X obj 359 405 f;
#X obj 406 403 f;
#X obj 461 405 f;
#X obj 229 218 del 100;
#X text 62 539 Setul de probabilitati ales pe baza optiunii curente, f 21;
#X msg 34 169 1;
#X obj 18 126 loadbang;
#X obj 253 622 outlet;
#X obj 85 14 inlet;
#X obj 321 553 del 10;
#X obj 64 372 del 10;
#X msg 300 91 0, f 4;
#X text 173 12 Sanse D;
#X text 458 14 Sanse D + S + B;
#X text 677 21 Sanse D + B;
#X text 981 15 Sanse D + S;
#X msg 714 88 0;
#X msg 811 84 0;
#X msg 859 85 0;
#X msg 754 90 1;
#X msg 445 99 0;
#X msg 485 100 0;
#X msg 155 95 0;
#X obj 325 447 mux5, f 20;
#X obj 116 174 w5random, f 26;
#X floatatom 347 131 5 0 0 0 - - - 0;
#X msg 350 92 0, f 4;
#X obj 406 178 w5random, f 26;
#X floatatom 637 136 5 0 0 0 - - - 0;
#X obj 720 166 w5random, f 26;
#X floatatom 903 124 5 0 0 0 - - - 0;
#X msg 906 85 0;
#X obj 991 164 w5random, f 26;
#X floatatom 1177 119 5 0 0 0 - - - 0;
#X floatatom 1237 118 5 0 0 0 - - - 0;
#X floatatom 1284 117 5 0 0 0 - - - 0;
#X floatatom 1339 119 5 0 0 0 - - - 0;
#X floatatom 1386 118 5 0 0 0 - - - 0;
#X obj 1315 42 loadbang;
#X floatatom 1253 202 5 0 0 0 - - - 0;
#X obj 1268 42 bng 19 250 50 0 empty empty empty 0 -10 0 12 #fcfcfc #000000 #000000;
#X obj 1249 159 w5random, f 26;
#X floatatom 1435 114 5 0 0 0 - - - 0;
#X text 1239 10 Sanse B + S;
#X obj 508 405 f;
#X msg 986 88 1;
#X msg 1026 89 0;
#X msg 1082 83 0;
#X msg 1131 84 0, f 4;
#X msg 1180 80 0, f 4;
#X msg 1244 83 1;
#X msg 1284 84 0;
#X msg 1340 78 0;
#X msg 1389 79 0, f 4;
#X msg 1438 75 0, f 4;
#X msg 542 93 0;
#X msg 591 95 0.5, f 4;
#X msg 641 97 0.5, f 4;
#X msg 195 96 0.6;
#X msg 252 90 0.4;
#X text 694 405 0 ---> D;
#X text 694 425 1 ---> D + S + B;
#X text 695 448 2 ---> D + B;
#X text 694 471 3 ---> D + S;
#X text 695 493 4 ---> B + S;
#X connect 0 0 60 1;
#X connect 1 0 60 2;
#X connect 2 0 60 3;
#X connect 3 0 60 4;
#X connect 4 0 47 0;
#X connect 4 0 95 0;
#X connect 4 0 94 0;
#X connect 4 0 58 0;
#X connect 4 0 62 0;
#X connect 5 0 35 1;
#X connect 6 0 94 0;
#X connect 6 0 47 0;
#X connect 6 0 95 0;
#X connect 6 0 58 0;
#X connect 6 0 62 0;
#X connect 7 0 63 1;
#X connect 8 0 63 2;
#X connect 9 0 63 3;
#X connect 10 0 63 4;
#X connect 11 0 92 0;
#X connect 11 0 91 0;
#X connect 11 0 57 0;
#X connect 11 0 56 0;
#X connect 11 0 93 0;
#X connect 12 0 36 1;
#X connect 13 0 57 0;
#X connect 13 0 92 0;
#X connect 13 0 91 0;
#X connect 13 0 56 0;
#X connect 13 0 93 0;
#X connect 14 0 65 1;
#X connect 15 0 65 2;
#X connect 16 0 65 3;
#X connect 17 0 65 4;
#X connect 18 0 54 0;
#X connect 18 0 53 0;
#X connect 18 0 55 0;
#X connect 18 0 52 0;
#X connect 18 0 67 0;
#X connect 19 0 37 1;
#X connect 20 0 55 0;
#X connect 20 0 54 0;
#X connect 20 0 53 0;
#X connect 20 0 52 0;
#X connect 20 0 67 0;
#X connect 21 0 68 1;
#X connect 22 0 68 2;
#X connect 23 0 68 3;
#X connect 24 0 68 4;
#X connect 25 0 84 0;
#X connect 25 0 83 0;
#X connect 25 0 82 0;
#X connect 25 0 81 0;
#X connect 25 0 85 0;
#X connect 26 0 38 1;
#X connect 27 0 82 0;
#X connect 27 0 84 0;
#X connect 27 0 83 0;
#X connect 27 0 81 0;
#X connect 27 0 85 0;
#X connect 28 0 45 0;
#X connect 28 1 29 1;
#X connect 29 0 31 1;
#X connect 29 0 32 0;
#X connect 30 0 39 0;
#X connect 30 0 46 0;
#X connect 30 0 60 0;
#X connect 30 0 63 0;
#X connect 30 0 65 0;
#X connect 30 0 68 0;
#X connect 31 0 34 0;
#X connect 33 0 31 0;
#X connect 34 0 43 0;
#X connect 34 0 59 0;
#X connect 35 0 59 1;
#X connect 36 0 59 2;
#X connect 37 0 59 3;
#X connect 38 0 59 4;
#X connect 39 0 35 0;
#X connect 39 0 36 0;
#X connect 39 0 37 0;
#X connect 39 0 38 0;
#X connect 39 0 80 0;
#X connect 41 0 5 0;
#X connect 41 0 34 0;
#X connect 42 0 41 0;
#X connect 44 0 30 0;
#X connect 45 0 29 0;
#X connect 46 0 33 0;
#X connect 47 0 3 0;
#X connect 52 0 14 0;
#X connect 53 0 16 0;
#X connect 54 0 17 0;
#X connect 55 0 15 0;
#X connect 56 0 7 0;
#X connect 57 0 8 0;
#X connect 58 0 0 0;
#X connect 59 0 28 0;
#X connect 60 0 5 0;
#X connect 61 0 60 5;
#X connect 62 0 61 0;
#X connect 63 0 12 0;
#X connect 64 0 63 5;
#X connect 65 0 19 0;
#X connect 66 0 65 5;
#X connect 67 0 66 0;
#X connect 68 0 26 0;
#X connect 69 0 68 5;
#X connect 70 0 77 1;
#X connect 71 0 77 2;
#X connect 72 0 77 3;
#X connect 73 0 77 4;
#X connect 74 0 89 0;
#X connect 74 0 88 0;
#X connect 74 0 87 0;
#X connect 74 0 86 0;
#X connect 74 0 90 0;
#X connect 75 0 80 1;
#X connect 76 0 87 0;
#X connect 76 0 89 0;
#X connect 76 0 88 0;
#X connect 76 0 86 0;
#X connect 76 0 90 0;
#X connect 77 0 75 0;
#X connect 78 0 77 5;
#X connect 80 0 59 5;
#X connect 81 0 21 0;
#X connect 82 0 22 0;
#X connect 83 0 23 0;
#X connect 84 0 24 0;
#X connect 85 0 69 0;
#X connect 86 0 70 0;
#X connect 87 0 71 0;
#X connect 88 0 72 0;
#X connect 89 0 73 0;
#X connect 90 0 78 0;
#X connect 91 0 9 0;
#X connect 92 0 10 0;
#X connect 93 0 64 0;
#X connect 94 0 1 0;
#X connect 95 0 2 0;
