#N canvas 6 120 1417 743 12;
#X obj 116 174 w4random, f 26;
#X floatatom 149 128 5 0 0 0 - - - 0;
#X floatatom 195 129 5 0 0 0 - - - 0;
#X floatatom 250 131 5 0 0 0 - - - 0;
#X floatatom 297 130 5 0 0 0 - - - 0;
#X obj 226 54 loadbang;
#X floatatom 127 217 5 0 0 0 - - - 0;
#X obj 183 46 bng 19 250 50 0 empty empty empty 0 -10 0 12 #fcfcfc #000000 #000000;
#X obj 341 175 w4random, f 26;
#X floatatom 373 131 5 0 0 0 - - - 0;
#X floatatom 420 130 5 0 0 0 - - - 0;
#X floatatom 475 132 5 0 0 0 - - - 0;
#X floatatom 522 131 5 0 0 0 - - - 0;
#X obj 451 55 loadbang;
#X floatatom 352 218 5 0 0 0 - - - 0;
#X obj 404 55 bng 19 250 50 0 empty empty empty 0 -10 0 12 #fcfcfc #000000 #000000;
#X obj 602 171 w4random, f 26;
#X floatatom 634 127 5 0 0 0 - - - 0;
#X floatatom 681 126 5 0 0 0 - - - 0;
#X floatatom 736 128 5 0 0 0 - - - 0;
#X floatatom 783 127 5 0 0 0 - - - 0;
#X obj 712 51 loadbang;
#X floatatom 613 214 5 0 0 0 - - - 0;
#X obj 665 51 bng 19 250 50 0 empty empty empty 0 -10 0 12 #fcfcfc #000000 #000000;
#X obj 827 172 w4random, f 26;
#X floatatom 859 128 5 0 0 0 - - - 0;
#X floatatom 906 127 5 0 0 0 - - - 0;
#X floatatom 961 129 5 0 0 0 - - - 0;
#X floatatom 1008 128 5 0 0 0 - - - 0;
#X obj 937 52 loadbang;
#X floatatom 831 215 5 0 0 0 - - - 0;
#X obj 890 52 bng 19 250 50 0 empty empty empty 0 -10 0 12 #fcfcfc #000000 #000000;
#X obj 327 336 mux4, f 20;
#X obj 328 391 t b f;
#X obj 168 307 f;
#X obj 100 46 bng 19 250 50 0 empty empty empty 0 -10 0 12 #fcfcfc #000000 #000000;
#X obj 148 342 f;
#X floatatom 194 388 5 0 0 0 - - - 0;
#X obj 113 295 bng 19 250 50 0 empty empty empty 0 -10 0 12 #fcfcfc #000000 #000000;
#X floatatom 243 306 5 0 0 0 - - - 0;
#X obj 314 295 f;
#X obj 361 294 f;
#X obj 408 292 f;
#X obj 463 294 f;
#X obj 229 218 del 100;
#X text 173 12 Sanse A;
#X text 393 11 Sanse B;
#X text 657 16 Sanse C;
#X text 870 15 Sanse D;
#X text 64 428 Setul de probabilitati ales pe baza optiunii curente, f 21;
#X msg 34 169 1;
#X obj 18 126 loadbang;
#X msg 252 90 0.2;
#X msg 300 91 0.1, f 4;
#X msg 380 96 0.1;
#X msg 420 97 0.3;
#X msg 477 91 0.2;
#X msg 525 92 0.4, f 4;
#X msg 738 87 0.2;
#X msg 906 94 0.3;
#X msg 1011 89 0.2, f 4;
#X obj 255 511 outlet;
#X obj 85 14 inlet;
#X msg 641 91 0.3;
#X msg 681 93 0.25;
#X msg 786 88 0.25;
#X msg 962 88 0.4;
#X msg 866 93 0.1;
#X msg 155 95 0.4;
#X msg 195 96 0.3;
#X obj 323 442 del 10;
#X obj 66 261 del 10;
#X connect 0 0 6 0;
#X connect 1 0 0 1;
#X connect 2 0 0 2;
#X connect 3 0 0 3;
#X connect 4 0 0 4;
#X connect 5 0 53 0;
#X connect 5 0 52 0;
#X connect 5 0 69 0;
#X connect 5 0 68 0;
#X connect 6 0 40 1;
#X connect 7 0 69 0;
#X connect 7 0 53 0;
#X connect 7 0 52 0;
#X connect 7 0 68 0;
#X connect 8 0 14 0;
#X connect 9 0 8 1;
#X connect 10 0 8 2;
#X connect 11 0 8 3;
#X connect 12 0 8 4;
#X connect 13 0 57 0;
#X connect 13 0 56 0;
#X connect 13 0 55 0;
#X connect 13 0 54 0;
#X connect 14 0 41 1;
#X connect 15 0 55 0;
#X connect 15 0 57 0;
#X connect 15 0 56 0;
#X connect 15 0 54 0;
#X connect 16 0 22 0;
#X connect 17 0 16 1;
#X connect 18 0 16 2;
#X connect 19 0 16 3;
#X connect 20 0 16 4;
#X connect 21 0 65 0;
#X connect 21 0 58 0;
#X connect 21 0 64 0;
#X connect 21 0 63 0;
#X connect 22 0 42 1;
#X connect 23 0 64 0;
#X connect 23 0 65 0;
#X connect 23 0 58 0;
#X connect 23 0 63 0;
#X connect 24 0 30 0;
#X connect 25 0 24 1;
#X connect 26 0 24 2;
#X connect 27 0 24 3;
#X connect 28 0 24 4;
#X connect 29 0 60 0;
#X connect 29 0 66 0;
#X connect 29 0 59 0;
#X connect 29 0 67 0;
#X connect 30 0 43 1;
#X connect 31 0 59 0;
#X connect 31 0 60 0;
#X connect 31 0 66 0;
#X connect 31 0 67 0;
#X connect 32 0 33 0;
#X connect 33 0 70 0;
#X connect 33 1 34 1;
#X connect 34 0 36 1;
#X connect 34 0 37 0;
#X connect 35 0 0 0;
#X connect 35 0 8 0;
#X connect 35 0 16 0;
#X connect 35 0 24 0;
#X connect 35 0 44 0;
#X connect 35 0 71 0;
#X connect 36 0 39 0;
#X connect 38 0 36 0;
#X connect 39 0 61 0;
#X connect 39 0 32 0;
#X connect 40 0 32 1;
#X connect 41 0 32 2;
#X connect 42 0 32 3;
#X connect 43 0 32 4;
#X connect 44 0 40 0;
#X connect 44 0 41 0;
#X connect 44 0 42 0;
#X connect 44 0 43 0;
#X connect 50 0 6 0;
#X connect 50 0 39 0;
#X connect 51 0 50 0;
#X connect 52 0 3 0;
#X connect 53 0 4 0;
#X connect 54 0 9 0;
#X connect 55 0 10 0;
#X connect 56 0 11 0;
#X connect 57 0 12 0;
#X connect 58 0 19 0;
#X connect 59 0 26 0;
#X connect 60 0 28 0;
#X connect 62 0 35 0;
#X connect 63 0 17 0;
#X connect 64 0 18 0;
#X connect 65 0 20 0;
#X connect 66 0 27 0;
#X connect 67 0 25 0;
#X connect 68 0 1 0;
#X connect 69 0 2 0;
#X connect 70 0 34 0;
#X connect 71 0 38 0;
