#N canvas 372 58 909 887 12;
#X text 201 15 sel;
#X text 491 54 in0;
#X text 554 51 in1;
#X text 604 51 in2;
#X obj 191 39 inlet;
#X obj 536 844 outlet;
#X obj 491 76 inlet;
#X obj 545 77 inlet;
#X obj 598 77 inlet;
#X obj 62 101 vradio 19 1 0 8 empty empty empty 0 -10 0 12 #fcfcfc #000000 #000000 0;
#X obj 205 119 expr if($i1==0 \, 1 \, 0);
#X obj 198 201 expr if($i1==1 \, 1 \, 0);
#X obj 205 271 expr if($i1==2 \, 1 \, 0);
#X floatatom 150 82 5 0 0 0 - - - 0;
#X floatatom 528 794 5 0 0 0 - - - 0;
#X floatatom 480 118 5 0 0 0 - - - 0;
#X floatatom 536 118 5 0 0 0 - - - 0;
#X floatatom 594 117 5 0 0 0 - - - 0;
#X text 707 49 in2;
#X obj 701 75 inlet;
#X floatatom 697 115 5 0 0 0 - - - 0;
#X obj 202 352 expr if($i1==3 \, 1 \, 0);
#X obj 336 154 t b f;
#X obj 337 233 t b f;
#X obj 341 303 t b f;
#X obj 342 387 t b f;
#X floatatom 391 180 5 0 0 0 - - - 0;
#X floatatom 396 265 5 0 0 0 - - - 0;
#X floatatom 398 335 5 0 0 0 - - - 0;
#X floatatom 401 419 5 0 0 0 - - - 0;
#X obj 448 229 *;
#X floatatom 510 600 5 0 0 0 - - - 0;
#X obj 469 183 t b f;
#X obj 520 292 *;
#X floatatom 581 600 5 0 0 0 - - - 0;
#X obj 541 246 t b f;
#X obj 598 373 *;
#X floatatom 643 599 5 0 0 0 - - - 0;
#X obj 614 326 t b f;
#X obj 709 444 *;
#X floatatom 721 593 5 0 0 0 - - - 0;
#X obj 730 398 t b f;
#X obj 659 656 t b f;
#X obj 589 657 t b f;
#X obj 521 654 t b f;
#X obj 734 658 t b f;
#X text 785 52 in2;
#X obj 779 78 inlet;
#X floatatom 775 118 5 0 0 0 - - - 0;
#X obj 796 543 *;
#X floatatom 799 596 5 0 0 0 - - - 0;
#X obj 817 497 t b f;
#X obj 812 661 t b f;
#X obj 349 483 t b f;
#X floatatom 408 515 5 0 0 0 - - - 0;
#X obj 209 448 expr if($i1==4 \, 1 \, 0);
#X obj 522 753 expr $f1+$f2+$f3+$f4+$f5;
#X connect 4 0 13 0;
#X connect 6 0 15 0;
#X connect 7 0 16 0;
#X connect 8 0 17 0;
#X connect 9 0 13 0;
#X connect 10 0 22 0;
#X connect 11 0 23 0;
#X connect 12 0 24 0;
#X connect 13 0 10 0;
#X connect 13 0 11 0;
#X connect 13 0 12 0;
#X connect 13 0 21 0;
#X connect 13 0 55 0;
#X connect 14 0 5 0;
#X connect 15 0 32 0;
#X connect 16 0 35 0;
#X connect 17 0 38 0;
#X connect 19 0 20 0;
#X connect 20 0 41 0;
#X connect 21 0 25 0;
#X connect 22 0 56 0;
#X connect 22 1 26 0;
#X connect 23 0 56 0;
#X connect 23 1 27 0;
#X connect 24 0 56 0;
#X connect 24 1 28 0;
#X connect 25 0 56 0;
#X connect 25 1 29 0;
#X connect 26 0 30 0;
#X connect 27 0 33 0;
#X connect 28 0 36 0;
#X connect 29 0 39 0;
#X connect 30 0 31 0;
#X connect 31 0 44 0;
#X connect 32 0 30 0;
#X connect 32 1 30 1;
#X connect 33 0 34 0;
#X connect 34 0 43 0;
#X connect 35 0 33 0;
#X connect 35 1 33 1;
#X connect 36 0 37 0;
#X connect 37 0 42 0;
#X connect 38 0 36 0;
#X connect 38 1 36 1;
#X connect 39 0 40 0;
#X connect 40 0 45 0;
#X connect 41 0 39 0;
#X connect 41 1 39 1;
#X connect 42 0 56 0;
#X connect 42 1 56 2;
#X connect 43 0 56 0;
#X connect 43 1 56 1;
#X connect 44 0 56 0;
#X connect 44 1 56 0;
#X connect 45 0 56 0;
#X connect 45 1 56 3;
#X connect 47 0 48 0;
#X connect 48 0 51 0;
#X connect 49 0 50 0;
#X connect 50 0 52 0;
#X connect 51 0 49 0;
#X connect 51 1 49 1;
#X connect 52 0 56 0;
#X connect 52 1 56 4;
#X connect 53 1 54 0;
#X connect 54 0 49 0;
#X connect 55 0 53 0;
#X connect 56 0 14 0;
