#N canvas 2430 77 1920 976 12;
#X obj 397 197 vsl 19 162 0 5 0 0 empty empty empty 0 -9 0 12 #c6ffc7 #000000 #000000 0 1;
#X floatatom 397 372 5 0 0 0 - - - 0;
#X obj 356 398 *~;
#X obj 347 434 dac~;
#X obj 333 297 r~ synth;
#X obj 111 261 bng 19 250 50 0 empty empty empty 0 -10 0 12 #fcfcfc #000000 #000000;
#X obj 115 393 synth_track;
#X floatatom 57 366 5 0 0 0 - - - 0;
#X obj 31 283 random 16;
#X floatatom 31 307 5 0 0 0 - - - 0;
#X obj 31 330 + 50;
#X obj 123 441 s~ synth_sound;
#N canvas 825 57 910 873 trackMUX 0;
#X text 201 15 sel;
#X obj 191 39 inlet;
#X obj 62 101 vradio 19 1 0 8 empty empty empty 0 -10 0 12 #fcfcfc #000000 #000000 0;
#X obj 205 119 expr if($i1==0 \, 1 \, 0);
#X obj 198 201 expr if($i1==1 \, 1 \, 0);
#X obj 205 271 expr if($i1==2 \, 1 \, 0);
#X floatatom 150 82 5 0 0 0 - - - 0;
#X obj 202 352 expr if($i1==3 \, 1 \, 0);
#X obj 336 154 t b f;
#X obj 337 233 t b f;
#X obj 341 303 t b f;
#X obj 342 387 t b f;
#X floatatom 391 180 5 0 0 0 - - - 0;
#X floatatom 396 265 5 0 0 0 - - - 0;
#X floatatom 398 335 5 0 0 0 - - - 0;
#X floatatom 401 419 5 0 0 0 - - - 0;
#X obj 349 483 t b f;
#X floatatom 408 515 5 0 0 0 - - - 0;
#X obj 209 448 expr if($i1==4 \, 1 \, 0);
#X obj 443 104 inlet~;
#X obj 530 91 inlet~;
#X obj 620 94 inlet~;
#X obj 501 240 *~;
#X text 443 82 drum;
#X text 539 65 bass;
#X text 626 68 synth;
#X obj 503 318 *~;
#X obj 505 407 *~;
#X obj 507 485 *~;
#X obj 630 325 *~;
#X obj 642 432 *~;
#X obj 610 580 *~;
#X obj 767 586 *~;
#X obj 755 321 *~;
#X obj 759 488 *~;
#X obj 395 707 outlet~;
#X obj 573 639 expr~ $v1 + $v2 + $v3;
#X obj 742 640 expr~ $v1 + $v2 + $v3;
#X obj 367 641 expr~ $v1 + $v2 + $v3 + $v4;
#X obj 609 705 outlet~;
#X obj 791 713 outlet~;
#X connect 1 0 6 0;
#X connect 2 0 6 0;
#X connect 3 0 8 0;
#X connect 4 0 9 0;
#X connect 5 0 10 0;
#X connect 6 0 3 0;
#X connect 6 0 4 0;
#X connect 6 0 5 0;
#X connect 6 0 7 0;
#X connect 6 0 18 0;
#X connect 7 0 11 0;
#X connect 8 1 12 0;
#X connect 9 1 13 0;
#X connect 10 1 14 0;
#X connect 11 1 15 0;
#X connect 12 0 22 1;
#X connect 13 0 26 1;
#X connect 13 0 29 1;
#X connect 13 0 33 0;
#X connect 14 0 27 1;
#X connect 14 0 30 1;
#X connect 15 0 28 1;
#X connect 15 0 34 1;
#X connect 16 1 17 0;
#X connect 17 0 31 1;
#X connect 17 0 32 1;
#X connect 18 0 16 0;
#X connect 19 0 22 0;
#X connect 19 0 26 0;
#X connect 19 0 27 0;
#X connect 19 0 28 0;
#X connect 20 0 29 0;
#X connect 20 0 30 0;
#X connect 20 0 31 0;
#X connect 21 0 33 1;
#X connect 21 0 34 0;
#X connect 21 0 32 0;
#X connect 22 0 38 0;
#X connect 26 0 38 1;
#X connect 27 0 38 2;
#X connect 28 0 38 3;
#X connect 29 0 36 2;
#X connect 30 0 36 1;
#X connect 31 0 36 0;
#X connect 32 0 37 2;
#X connect 33 0 37 0;
#X connect 34 0 37 1;
#X connect 36 0 39 0;
#X connect 37 0 40 0;
#X connect 38 0 35 0;
#X restore 99 134 pd trackMUX;
#X obj 172 164 s~ synth;
#X obj 172 103 r~ synth_sound;
#X obj 176 320 unpack s s b;
#X obj 28 228 unpack s s b;
#X obj 30 197 udpreceive 3001;
#X obj 57 57 udpreceive 3005;
#X obj 176 280 udpreceive 3003;
#X obj 181 355 bng 19 250 50 0 empty empty empty 0 -10 0 12 #fcfcfc #000000 #000000;
#X text 431 278 0 - 5 gain factor beacuse track is very silent;
#X obj 58 88 unpack s s f;
#X obj 345 113 unpack s s f;
#X obj 344 82 udpreceive 3007;
#X connect 0 0 1 0;
#X connect 1 0 2 1;
#X connect 2 0 3 0;
#X connect 2 0 3 1;
#X connect 4 0 2 0;
#X connect 5 0 6 1;
#X connect 5 0 8 0;
#X connect 6 0 11 0;
#X connect 7 0 6 0;
#X connect 8 0 9 0;
#X connect 9 0 10 0;
#X connect 10 0 7 0;
#X connect 12 2 13 0;
#X connect 14 0 12 3;
#X connect 15 2 20 0;
#X connect 16 2 5 0;
#X connect 17 0 16 0;
#X connect 18 0 22 0;
#X connect 19 0 15 0;
#X connect 20 0 6 2;
#X connect 22 2 12 0;
#X connect 23 2 0 0;
#X connect 24 0 23 0;
#X coords 0 0 4 4 0 0 0;
