#N canvas 1890 995 1920 976 12;
#X floatatom 219 223 5 0 0 0 - - - 0;
#X obj 253 260 mtof;
#X floatatom 254 286 5 0 0 0 - - - 0;
#X floatatom 806 677 5 0 0 0 - - - 0;
#X floatatom 850 676 5 0 0 0 - - - 0;
#X floatatom 895 675 5 0 0 0 - - - 0;
#X floatatom 937 675 5 0 0 0 - - - 0;
#X floatatom 981 674 5 0 0 0 - - - 0;
#X floatatom 1025 675 5 0 0 0 - - - 0;
#X floatatom 1066 674 5 0 0 0 - - - 0;
#X floatatom 1110 674 5 0 0 0 - - - 0;
#X floatatom 1154 673 5 0 0 0 - - - 0;
#X obj 1155 496 vsl 19 162 0.01 1 1 0 empty empty empty 0 -9 0 12 #faff00 #000000 #000000 0 1;
#X obj 1114 496 vsl 19 162 0.01 1 1 0 empty empty empty 0 -9 0 12 #faff00 #000000 #000000 0 1;
#X obj 1072 496 vsl 19 162 0.01 1 1 0 empty empty empty 0 -9 0 12 #faff00 #000000 #000000 0 1;
#X obj 1031 498 vsl 19 162 0.01 1 1 0 empty empty empty 0 -9 0 12 #faff00 #000000 #000000 0 1;
#X obj 989 498 vsl 19 162 0.01 1 1 0 empty empty empty 0 -9 0 12 #faff00 #000000 #000000 0 1;
#X obj 942 498 vsl 19 162 0.01 1 1 0 empty empty empty 0 -9 0 12 #faff00 #000000 #000000 0 1;
#X obj 900 498 vsl 19 162 0.01 1 1 0 empty empty empty 0 -9 0 12 #faff00 #000000 #000000 0 1;
#X obj 852 495 vsl 19 162 0.01 1 1 0 empty empty empty 0 -9 0 12 #faff00 #000000 #000000 0 1;
#X obj 810 495 vsl 19 162 0.01 1 1 0 empty empty empty 0 -9 0 12 #faff00 #000000 #000000 0 1;
#X msg 806 462 0;
#X msg 848 461 0;
#X msg 898 459 0;
#X msg 940 458 0;
#X msg 990 461 0;
#X msg 1032 460 0;
#X msg 1070 460 0;
#X msg 1112 459 0;
#X msg 1152 458 0;
#X obj 986 373 bng 19 250 50 0 empty empty empty 0 -10 0 12 #fcfcfc #000000 #000000;
#X obj 194 289 mtof;
#X floatatom 195 315 5 0 0 0 - - - 0;
#X obj 135 318 mtof;
#X floatatom 136 344 5 0 0 0 - - - 0;
#X obj 72 348 mtof;
#X floatatom 73 374 5 0 0 0 - - - 0;
#X obj 405 682 s~ n1;
#X obj 318 674 s~ n2;
#X obj 232 671 s~ n3;
#X obj 135 671 s~ n4;
#X obj 1254 262 r~ n1;
#X obj 1306 265 r~ n2;
#X obj 1363 265 r~ n3;
#X obj 1422 264 r~ n4;
#X obj 1271 290 vsl 19 162 0 1 0 0 empty empty empty 0 -9 0 12 #feffc6 #000000 #000000 0 1;
#X obj 1260 503 *~;
#X floatatom 1266 468 5 0 0 0 - - - 0;
#X obj 1320 290 vsl 19 162 0 1 0 0 empty empty empty 0 -9 0 12 #feffc6 #000000 #000000 0 1;
#X obj 1309 503 *~;
#X floatatom 1315 468 5 0 0 0 - - - 0;
#X obj 1380 292 vsl 19 162 0 1 0 0 empty empty empty 0 -9 0 12 #feffc6 #000000 #000000 0 1;
#X obj 1369 505 *~;
#X floatatom 1375 470 5 0 0 0 - - - 0;
#X obj 1439 292 vsl 19 162 0 1 0 0 empty empty empty 0 -9 0 12 #feffc6 #000000 #000000 0 1;
#X obj 1428 505 *~;
#X floatatom 1434 470 5 0 0 0 - - - 0;
#X obj 974 336 loadbang;
#X obj 194 263 + 3;
#X obj 135 292 + 5;
#X obj 71 323 + 9;
#X obj 1576 302 vsl 19 162 0 500 0 0 empty empty empty 0 -9 0 12 #c7c6ff #000000 #000000 0 1;
#X floatatom 1571 480 5 0 0 0 - - - 0;
#X obj 1618 300 vsl 19 162 0 500 0 0 empty empty empty 0 -9 0 12 #c7c6ff #000000 #000000 0 1;
#X floatatom 1613 478 5 0 0 0 - - - 0;
#X obj 1661 300 vsl 19 162 0 7000 0 0 empty empty empty 0 -9 0 12 #c7c6ff #000000 #000000 0 1;
#X floatatom 1656 478 5 0 0 0 - - - 0;
#X obj 1703 298 vsl 19 162 0 500 0 0 empty empty empty 0 -9 0 12 #c7c6ff #000000 #000000 0 1;
#X floatatom 1698 476 5 0 0 0 - - - 0;
#X obj 1747 297 vsl 19 162 0 1 0 0 empty empty empty 0 -9 0 12 #e3c6ff #000000 #000000 0 1;
#X floatatom 1742 475 5 0 0 0 - - - 0;
#X obj 1408 819 adsr, f 22;
#N canvas 631 172 887 512 specgen 0;
#X floatatom 218 76 5 0 0 0 - - - 0;
#X floatatom 262 75 5 0 0 0 - - - 0;
#X floatatom 307 74 5 0 0 0 - - - 0;
#X floatatom 349 74 5 0 0 0 - - - 0;
#X floatatom 393 73 5 0 0 0 - - - 0;
#X floatatom 437 74 5 0 0 0 - - - 0;
#X floatatom 480 73 5 0 0 0 - - - 0;
#X floatatom 522 73 5 0 0 0 - - - 0;
#X floatatom 566 72 5 0 0 0 - - - 0;
#X floatatom 206 161 5 0 0 0 - - - 0;
#X obj 205 137 * 1;
#X floatatom 248 160 5 0 0 0 - - - 0;
#X floatatom 290 158 5 0 0 0 - - - 0;
#X floatatom 332 157 5 0 0 0 - - - 0;
#X floatatom 373 156 5 0 0 0 - - - 0;
#X floatatom 415 155 5 0 0 0 - - - 0;
#X floatatom 459 152 5 0 0 0 - - - 0;
#X floatatom 501 151 5 0 0 0 - - - 0;
#X floatatom 542 150 5 0 0 0 - - - 0;
#X floatatom 584 149 5 0 0 0 - - - 0;
#X obj 247 136 * 2;
#X obj 289 134 * 3;
#X obj 331 133 * 4;
#X obj 372 132 * 5;
#X obj 414 131 * 6;
#X obj 458 128 * 7;
#X obj 500 127 * 8;
#X obj 541 126 * 9;
#X obj 583 125 * 10;
#X floatatom 118 75 5 0 0 0 - - - 0;
#X obj 55 248 bp~, f 6;
#X obj 127 249 bp~, f 6;
#X obj 196 251 bp~, f 6;
#X obj 268 252 bp~, f 6;
#X obj 333 247 bp~, f 6;
#X obj 405 248 bp~, f 6;
#X obj 474 250 bp~, f 6;
#X obj 546 251 bp~, f 6;
#X obj 610 250 bp~, f 6;
#X obj 682 251 bp~, f 6;
#X obj 61 125 noise~;
#X floatatom 649 155 5 0 0 0 - - - 0;
#X obj 67 299 *~;
#X obj 134 301 *~;
#X obj 206 298 *~;
#X obj 273 300 *~;
#X obj 344 299 *~;
#X obj 411 301 *~;
#X obj 483 298 *~;
#X obj 550 300 *~;
#X obj 623 299 *~;
#X obj 690 301 *~;
#X obj 108 342 +~;
#X obj 238 344 +~;
#X obj 382 348 +~;
#X obj 512 350 +~;
#X obj 648 346 +~;
#X obj 193 373 +~;
#X obj 442 377 +~;
#X obj 520 406 +~;
#X obj 288 421 +~;
#X msg 641 124 700;
#X obj 116 39 inlet;
#X obj 272 465 outlet~;
#X obj 216 46 unpack f f f f f f f f f, f 49;
#X obj 217 14 inlet;
#X obj 627 20 inlet;
#X connect 0 0 42 1;
#X connect 1 0 43 1;
#X connect 2 0 45 1;
#X connect 3 0 46 1;
#X connect 4 0 47 1;
#X connect 5 0 48 1;
#X connect 6 0 49 1;
#X connect 7 0 50 1;
#X connect 8 0 51 1;
#X connect 9 0 30 1;
#X connect 10 0 9 0;
#X connect 11 0 31 1;
#X connect 12 0 32 1;
#X connect 13 0 33 1;
#X connect 14 0 34 1;
#X connect 15 0 35 1;
#X connect 16 0 36 1;
#X connect 17 0 37 1;
#X connect 18 0 38 1;
#X connect 19 0 39 1;
#X connect 20 0 11 0;
#X connect 21 0 12 0;
#X connect 22 0 13 0;
#X connect 23 0 14 0;
#X connect 24 0 15 0;
#X connect 25 0 16 0;
#X connect 26 0 17 0;
#X connect 27 0 18 0;
#X connect 28 0 19 0;
#X connect 29 0 10 0;
#X connect 29 0 20 0;
#X connect 29 0 21 0;
#X connect 29 0 22 0;
#X connect 29 0 23 0;
#X connect 29 0 24 0;
#X connect 29 0 25 0;
#X connect 29 0 26 0;
#X connect 29 0 27 0;
#X connect 29 0 28 0;
#X connect 30 0 42 0;
#X connect 31 0 43 0;
#X connect 32 0 44 0;
#X connect 33 0 45 0;
#X connect 34 0 46 0;
#X connect 35 0 47 0;
#X connect 36 0 48 0;
#X connect 37 0 49 0;
#X connect 38 0 50 0;
#X connect 39 0 51 0;
#X connect 40 0 30 0;
#X connect 40 0 31 0;
#X connect 40 0 32 0;
#X connect 40 0 33 0;
#X connect 40 0 34 0;
#X connect 40 0 35 0;
#X connect 40 0 36 0;
#X connect 40 0 37 0;
#X connect 40 0 38 0;
#X connect 40 0 39 0;
#X connect 41 0 39 2;
#X connect 41 0 38 2;
#X connect 41 0 37 2;
#X connect 41 0 36 2;
#X connect 41 0 35 2;
#X connect 41 0 34 2;
#X connect 41 0 33 2;
#X connect 41 0 32 2;
#X connect 41 0 31 2;
#X connect 41 0 30 2;
#X connect 42 0 52 0;
#X connect 43 0 52 1;
#X connect 44 0 53 0;
#X connect 45 0 53 1;
#X connect 46 0 54 0;
#X connect 47 0 54 1;
#X connect 48 0 55 0;
#X connect 49 0 55 1;
#X connect 50 0 56 0;
#X connect 51 0 56 1;
#X connect 52 0 57 0;
#X connect 53 0 57 1;
#X connect 54 0 58 0;
#X connect 55 0 58 1;
#X connect 56 0 59 1;
#X connect 57 0 60 0;
#X connect 58 0 59 0;
#X connect 59 0 60 1;
#X connect 60 0 63 0;
#X connect 61 0 41 0;
#X connect 62 0 29 0;
#X connect 64 0 0 0;
#X connect 64 1 1 0;
#X connect 64 2 2 0;
#X connect 64 3 3 0;
#X connect 64 4 4 0;
#X connect 64 5 5 0;
#X connect 64 6 6 0;
#X connect 64 7 7 0;
#X connect 64 8 8 0;
#X connect 65 0 64 0;
#X connect 66 0 41 0;
#X restore 404 645 pd specgen;
#X obj 802 765 pack f f f f f f f f f;
#X obj 804 720 bng 19 250 50 0 empty empty empty 0 -10 0 12 #fcfcfc #000000 #000000;
#X obj 299 360 vsl 19 162 10 1000 1 0 empty empty empty 0 -9 0 12 #c6ffc7 #000000 #000000 0 1;
#X floatatom 299 537 5 0 0 0 - - - 0;
#N canvas 631 172 887 512 specgen 0;
#X floatatom 218 76 5 0 0 0 - - - 0;
#X floatatom 262 75 5 0 0 0 - - - 0;
#X floatatom 307 74 5 0 0 0 - - - 0;
#X floatatom 349 74 5 0 0 0 - - - 0;
#X floatatom 393 73 5 0 0 0 - - - 0;
#X floatatom 437 74 5 0 0 0 - - - 0;
#X floatatom 480 73 5 0 0 0 - - - 0;
#X floatatom 522 73 5 0 0 0 - - - 0;
#X floatatom 566 72 5 0 0 0 - - - 0;
#X floatatom 206 161 5 0 0 0 - - - 0;
#X obj 205 137 * 1;
#X floatatom 248 160 5 0 0 0 - - - 0;
#X floatatom 290 158 5 0 0 0 - - - 0;
#X floatatom 332 157 5 0 0 0 - - - 0;
#X floatatom 373 156 5 0 0 0 - - - 0;
#X floatatom 415 155 5 0 0 0 - - - 0;
#X floatatom 459 152 5 0 0 0 - - - 0;
#X floatatom 501 151 5 0 0 0 - - - 0;
#X floatatom 542 150 5 0 0 0 - - - 0;
#X floatatom 584 149 5 0 0 0 - - - 0;
#X obj 247 136 * 2;
#X obj 289 134 * 3;
#X obj 331 133 * 4;
#X obj 372 132 * 5;
#X obj 414 131 * 6;
#X obj 458 128 * 7;
#X obj 500 127 * 8;
#X obj 541 126 * 9;
#X obj 583 125 * 10;
#X floatatom 118 75 5 0 0 0 - - - 0;
#X obj 55 248 bp~, f 6;
#X obj 127 249 bp~, f 6;
#X obj 196 251 bp~, f 6;
#X obj 268 252 bp~, f 6;
#X obj 333 247 bp~, f 6;
#X obj 405 248 bp~, f 6;
#X obj 474 250 bp~, f 6;
#X obj 546 251 bp~, f 6;
#X obj 610 250 bp~, f 6;
#X obj 682 251 bp~, f 6;
#X obj 61 125 noise~;
#X floatatom 649 155 5 0 0 0 - - - 0;
#X obj 67 299 *~;
#X obj 134 301 *~;
#X obj 206 298 *~;
#X obj 273 300 *~;
#X obj 344 299 *~;
#X obj 411 301 *~;
#X obj 483 298 *~;
#X obj 550 300 *~;
#X obj 623 299 *~;
#X obj 690 301 *~;
#X obj 108 342 +~;
#X obj 238 344 +~;
#X obj 382 348 +~;
#X obj 512 350 +~;
#X obj 648 346 +~;
#X obj 193 373 +~;
#X obj 442 377 +~;
#X obj 520 406 +~;
#X obj 288 421 +~;
#X msg 641 124 700;
#X obj 116 39 inlet;
#X obj 272 465 outlet~;
#X obj 216 46 unpack f f f f f f f f f, f 49;
#X obj 217 14 inlet;
#X obj 627 20 inlet;
#X connect 0 0 42 1;
#X connect 1 0 43 1;
#X connect 2 0 45 1;
#X connect 3 0 46 1;
#X connect 4 0 47 1;
#X connect 5 0 48 1;
#X connect 6 0 49 1;
#X connect 7 0 50 1;
#X connect 8 0 51 1;
#X connect 9 0 30 1;
#X connect 10 0 9 0;
#X connect 11 0 31 1;
#X connect 12 0 32 1;
#X connect 13 0 33 1;
#X connect 14 0 34 1;
#X connect 15 0 35 1;
#X connect 16 0 36 1;
#X connect 17 0 37 1;
#X connect 18 0 38 1;
#X connect 19 0 39 1;
#X connect 20 0 11 0;
#X connect 21 0 12 0;
#X connect 22 0 13 0;
#X connect 23 0 14 0;
#X connect 24 0 15 0;
#X connect 25 0 16 0;
#X connect 26 0 17 0;
#X connect 27 0 18 0;
#X connect 28 0 19 0;
#X connect 29 0 10 0;
#X connect 29 0 20 0;
#X connect 29 0 21 0;
#X connect 29 0 22 0;
#X connect 29 0 23 0;
#X connect 29 0 24 0;
#X connect 29 0 25 0;
#X connect 29 0 26 0;
#X connect 29 0 27 0;
#X connect 29 0 28 0;
#X connect 30 0 42 0;
#X connect 31 0 43 0;
#X connect 32 0 44 0;
#X connect 33 0 45 0;
#X connect 34 0 46 0;
#X connect 35 0 47 0;
#X connect 36 0 48 0;
#X connect 37 0 49 0;
#X connect 38 0 50 0;
#X connect 39 0 51 0;
#X connect 40 0 30 0;
#X connect 40 0 31 0;
#X connect 40 0 32 0;
#X connect 40 0 33 0;
#X connect 40 0 34 0;
#X connect 40 0 35 0;
#X connect 40 0 36 0;
#X connect 40 0 37 0;
#X connect 40 0 38 0;
#X connect 40 0 39 0;
#X connect 41 0 39 2;
#X connect 41 0 38 2;
#X connect 41 0 37 2;
#X connect 41 0 36 2;
#X connect 41 0 35 2;
#X connect 41 0 34 2;
#X connect 41 0 33 2;
#X connect 41 0 32 2;
#X connect 41 0 31 2;
#X connect 41 0 30 2;
#X connect 42 0 52 0;
#X connect 43 0 52 1;
#X connect 44 0 53 0;
#X connect 45 0 53 1;
#X connect 46 0 54 0;
#X connect 47 0 54 1;
#X connect 48 0 55 0;
#X connect 49 0 55 1;
#X connect 50 0 56 0;
#X connect 51 0 56 1;
#X connect 52 0 57 0;
#X connect 53 0 57 1;
#X connect 54 0 58 0;
#X connect 55 0 58 1;
#X connect 56 0 59 1;
#X connect 57 0 60 0;
#X connect 58 0 59 0;
#X connect 59 0 60 1;
#X connect 60 0 63 0;
#X connect 61 0 41 0;
#X connect 62 0 29 0;
#X connect 64 0 0 0;
#X connect 64 1 1 0;
#X connect 64 2 2 0;
#X connect 64 3 3 0;
#X connect 64 4 4 0;
#X connect 64 5 5 0;
#X connect 64 6 6 0;
#X connect 64 7 7 0;
#X connect 64 8 8 0;
#X connect 65 0 64 0;
#X connect 66 0 41 0;
#X restore 313 642 pd specgen;
#N canvas 631 172 887 512 specgen 0;
#X floatatom 218 76 5 0 0 0 - - - 0;
#X floatatom 262 75 5 0 0 0 - - - 0;
#X floatatom 307 74 5 0 0 0 - - - 0;
#X floatatom 349 74 5 0 0 0 - - - 0;
#X floatatom 393 73 5 0 0 0 - - - 0;
#X floatatom 437 74 5 0 0 0 - - - 0;
#X floatatom 480 73 5 0 0 0 - - - 0;
#X floatatom 522 73 5 0 0 0 - - - 0;
#X floatatom 566 72 5 0 0 0 - - - 0;
#X floatatom 206 161 5 0 0 0 - - - 0;
#X obj 205 137 * 1;
#X floatatom 248 160 5 0 0 0 - - - 0;
#X floatatom 290 158 5 0 0 0 - - - 0;
#X floatatom 332 157 5 0 0 0 - - - 0;
#X floatatom 373 156 5 0 0 0 - - - 0;
#X floatatom 415 155 5 0 0 0 - - - 0;
#X floatatom 459 152 5 0 0 0 - - - 0;
#X floatatom 501 151 5 0 0 0 - - - 0;
#X floatatom 542 150 5 0 0 0 - - - 0;
#X floatatom 584 149 5 0 0 0 - - - 0;
#X obj 247 136 * 2;
#X obj 289 134 * 3;
#X obj 331 133 * 4;
#X obj 372 132 * 5;
#X obj 414 131 * 6;
#X obj 458 128 * 7;
#X obj 500 127 * 8;
#X obj 541 126 * 9;
#X obj 583 125 * 10;
#X floatatom 118 75 5 0 0 0 - - - 0;
#X obj 55 248 bp~, f 6;
#X obj 127 249 bp~, f 6;
#X obj 196 251 bp~, f 6;
#X obj 268 252 bp~, f 6;
#X obj 333 247 bp~, f 6;
#X obj 405 248 bp~, f 6;
#X obj 474 250 bp~, f 6;
#X obj 546 251 bp~, f 6;
#X obj 610 250 bp~, f 6;
#X obj 682 251 bp~, f 6;
#X obj 61 125 noise~;
#X floatatom 649 155 5 0 0 0 - - - 0;
#X obj 67 299 *~;
#X obj 134 301 *~;
#X obj 206 298 *~;
#X obj 273 300 *~;
#X obj 344 299 *~;
#X obj 411 301 *~;
#X obj 483 298 *~;
#X obj 550 300 *~;
#X obj 623 299 *~;
#X obj 690 301 *~;
#X obj 108 342 +~;
#X obj 238 344 +~;
#X obj 382 348 +~;
#X obj 512 350 +~;
#X obj 648 346 +~;
#X obj 193 373 +~;
#X obj 442 377 +~;
#X obj 520 406 +~;
#X obj 288 421 +~;
#X msg 641 124 700;
#X obj 116 39 inlet;
#X obj 272 465 outlet~;
#X obj 216 46 unpack f f f f f f f f f, f 49;
#X obj 217 14 inlet;
#X obj 627 20 inlet;
#X connect 0 0 42 1;
#X connect 1 0 43 1;
#X connect 2 0 45 1;
#X connect 3 0 46 1;
#X connect 4 0 47 1;
#X connect 5 0 48 1;
#X connect 6 0 49 1;
#X connect 7 0 50 1;
#X connect 8 0 51 1;
#X connect 9 0 30 1;
#X connect 10 0 9 0;
#X connect 11 0 31 1;
#X connect 12 0 32 1;
#X connect 13 0 33 1;
#X connect 14 0 34 1;
#X connect 15 0 35 1;
#X connect 16 0 36 1;
#X connect 17 0 37 1;
#X connect 18 0 38 1;
#X connect 19 0 39 1;
#X connect 20 0 11 0;
#X connect 21 0 12 0;
#X connect 22 0 13 0;
#X connect 23 0 14 0;
#X connect 24 0 15 0;
#X connect 25 0 16 0;
#X connect 26 0 17 0;
#X connect 27 0 18 0;
#X connect 28 0 19 0;
#X connect 29 0 10 0;
#X connect 29 0 20 0;
#X connect 29 0 21 0;
#X connect 29 0 22 0;
#X connect 29 0 23 0;
#X connect 29 0 24 0;
#X connect 29 0 25 0;
#X connect 29 0 26 0;
#X connect 29 0 27 0;
#X connect 29 0 28 0;
#X connect 30 0 42 0;
#X connect 31 0 43 0;
#X connect 32 0 44 0;
#X connect 33 0 45 0;
#X connect 34 0 46 0;
#X connect 35 0 47 0;
#X connect 36 0 48 0;
#X connect 37 0 49 0;
#X connect 38 0 50 0;
#X connect 39 0 51 0;
#X connect 40 0 30 0;
#X connect 40 0 31 0;
#X connect 40 0 32 0;
#X connect 40 0 33 0;
#X connect 40 0 34 0;
#X connect 40 0 35 0;
#X connect 40 0 36 0;
#X connect 40 0 37 0;
#X connect 40 0 38 0;
#X connect 40 0 39 0;
#X connect 41 0 39 2;
#X connect 41 0 38 2;
#X connect 41 0 37 2;
#X connect 41 0 36 2;
#X connect 41 0 35 2;
#X connect 41 0 34 2;
#X connect 41 0 33 2;
#X connect 41 0 32 2;
#X connect 41 0 31 2;
#X connect 41 0 30 2;
#X connect 42 0 52 0;
#X connect 43 0 52 1;
#X connect 44 0 53 0;
#X connect 45 0 53 1;
#X connect 46 0 54 0;
#X connect 47 0 54 1;
#X connect 48 0 55 0;
#X connect 49 0 55 1;
#X connect 50 0 56 0;
#X connect 51 0 56 1;
#X connect 52 0 57 0;
#X connect 53 0 57 1;
#X connect 54 0 58 0;
#X connect 55 0 58 1;
#X connect 56 0 59 1;
#X connect 57 0 60 0;
#X connect 58 0 59 0;
#X connect 59 0 60 1;
#X connect 60 0 63 0;
#X connect 61 0 41 0;
#X connect 62 0 29 0;
#X connect 64 0 0 0;
#X connect 64 1 1 0;
#X connect 64 2 2 0;
#X connect 64 3 3 0;
#X connect 64 4 4 0;
#X connect 64 5 5 0;
#X connect 64 6 6 0;
#X connect 64 7 7 0;
#X connect 64 8 8 0;
#X connect 65 0 64 0;
#X connect 66 0 41 0;
#X restore 225 644 pd specgen;
#N canvas 631 172 887 512 specgen 0;
#X floatatom 218 76 5 0 0 0 - - - 0;
#X floatatom 262 75 5 0 0 0 - - - 0;
#X floatatom 307 74 5 0 0 0 - - - 0;
#X floatatom 349 74 5 0 0 0 - - - 0;
#X floatatom 393 73 5 0 0 0 - - - 0;
#X floatatom 437 74 5 0 0 0 - - - 0;
#X floatatom 480 73 5 0 0 0 - - - 0;
#X floatatom 522 73 5 0 0 0 - - - 0;
#X floatatom 566 72 5 0 0 0 - - - 0;
#X floatatom 206 161 5 0 0 0 - - - 0;
#X obj 205 137 * 1;
#X floatatom 248 160 5 0 0 0 - - - 0;
#X floatatom 290 158 5 0 0 0 - - - 0;
#X floatatom 332 157 5 0 0 0 - - - 0;
#X floatatom 373 156 5 0 0 0 - - - 0;
#X floatatom 415 155 5 0 0 0 - - - 0;
#X floatatom 459 152 5 0 0 0 - - - 0;
#X floatatom 501 151 5 0 0 0 - - - 0;
#X floatatom 542 150 5 0 0 0 - - - 0;
#X floatatom 584 149 5 0 0 0 - - - 0;
#X obj 247 136 * 2;
#X obj 289 134 * 3;
#X obj 331 133 * 4;
#X obj 372 132 * 5;
#X obj 414 131 * 6;
#X obj 458 128 * 7;
#X obj 500 127 * 8;
#X obj 541 126 * 9;
#X obj 583 125 * 10;
#X floatatom 118 75 5 0 0 0 - - - 0;
#X obj 55 248 bp~, f 6;
#X obj 127 249 bp~, f 6;
#X obj 196 251 bp~, f 6;
#X obj 268 252 bp~, f 6;
#X obj 333 247 bp~, f 6;
#X obj 405 248 bp~, f 6;
#X obj 474 250 bp~, f 6;
#X obj 546 251 bp~, f 6;
#X obj 610 250 bp~, f 6;
#X obj 682 251 bp~, f 6;
#X obj 61 125 noise~;
#X floatatom 649 155 5 0 0 0 - - - 0;
#X obj 67 299 *~;
#X obj 134 301 *~;
#X obj 206 298 *~;
#X obj 273 300 *~;
#X obj 344 299 *~;
#X obj 411 301 *~;
#X obj 483 298 *~;
#X obj 550 300 *~;
#X obj 623 299 *~;
#X obj 690 301 *~;
#X obj 108 342 +~;
#X obj 238 344 +~;
#X obj 382 348 +~;
#X obj 512 350 +~;
#X obj 648 346 +~;
#X obj 193 373 +~;
#X obj 442 377 +~;
#X obj 520 406 +~;
#X obj 288 421 +~;
#X msg 641 124 700;
#X obj 116 39 inlet;
#X obj 272 465 outlet~;
#X obj 216 46 unpack f f f f f f f f f, f 49;
#X obj 217 14 inlet;
#X obj 627 20 inlet;
#X connect 0 0 42 1;
#X connect 1 0 43 1;
#X connect 2 0 45 1;
#X connect 3 0 46 1;
#X connect 4 0 47 1;
#X connect 5 0 48 1;
#X connect 6 0 49 1;
#X connect 7 0 50 1;
#X connect 8 0 51 1;
#X connect 9 0 30 1;
#X connect 10 0 9 0;
#X connect 11 0 31 1;
#X connect 12 0 32 1;
#X connect 13 0 33 1;
#X connect 14 0 34 1;
#X connect 15 0 35 1;
#X connect 16 0 36 1;
#X connect 17 0 37 1;
#X connect 18 0 38 1;
#X connect 19 0 39 1;
#X connect 20 0 11 0;
#X connect 21 0 12 0;
#X connect 22 0 13 0;
#X connect 23 0 14 0;
#X connect 24 0 15 0;
#X connect 25 0 16 0;
#X connect 26 0 17 0;
#X connect 27 0 18 0;
#X connect 28 0 19 0;
#X connect 29 0 10 0;
#X connect 29 0 20 0;
#X connect 29 0 21 0;
#X connect 29 0 22 0;
#X connect 29 0 23 0;
#X connect 29 0 24 0;
#X connect 29 0 25 0;
#X connect 29 0 26 0;
#X connect 29 0 27 0;
#X connect 29 0 28 0;
#X connect 30 0 42 0;
#X connect 31 0 43 0;
#X connect 32 0 44 0;
#X connect 33 0 45 0;
#X connect 34 0 46 0;
#X connect 35 0 47 0;
#X connect 36 0 48 0;
#X connect 37 0 49 0;
#X connect 38 0 50 0;
#X connect 39 0 51 0;
#X connect 40 0 30 0;
#X connect 40 0 31 0;
#X connect 40 0 32 0;
#X connect 40 0 33 0;
#X connect 40 0 34 0;
#X connect 40 0 35 0;
#X connect 40 0 36 0;
#X connect 40 0 37 0;
#X connect 40 0 38 0;
#X connect 40 0 39 0;
#X connect 41 0 39 2;
#X connect 41 0 38 2;
#X connect 41 0 37 2;
#X connect 41 0 36 2;
#X connect 41 0 35 2;
#X connect 41 0 34 2;
#X connect 41 0 33 2;
#X connect 41 0 32 2;
#X connect 41 0 31 2;
#X connect 41 0 30 2;
#X connect 42 0 52 0;
#X connect 43 0 52 1;
#X connect 44 0 53 0;
#X connect 45 0 53 1;
#X connect 46 0 54 0;
#X connect 47 0 54 1;
#X connect 48 0 55 0;
#X connect 49 0 55 1;
#X connect 50 0 56 0;
#X connect 51 0 56 1;
#X connect 52 0 57 0;
#X connect 53 0 57 1;
#X connect 54 0 58 0;
#X connect 55 0 58 1;
#X connect 56 0 59 1;
#X connect 57 0 60 0;
#X connect 58 0 59 0;
#X connect 59 0 60 1;
#X connect 60 0 63 0;
#X connect 61 0 41 0;
#X connect 62 0 29 0;
#X connect 64 0 0 0;
#X connect 64 1 1 0;
#X connect 64 2 2 0;
#X connect 64 3 3 0;
#X connect 64 4 4 0;
#X connect 64 5 5 0;
#X connect 64 6 6 0;
#X connect 64 7 7 0;
#X connect 64 8 8 0;
#X connect 65 0 64 0;
#X connect 66 0 41 0;
#X restore 139 643 pd specgen;
#X obj 98 44 inlet;
#X floatatom 299 303 5 0 0 0 - - - 0;
#X obj 818 43 bng 19 250 50 0 empty empty empty 0 -10 0 12 #fcfcfc #000000 #000000;
#X obj 299 279 random 700;
#X obj 299 328 + 300;
#X obj 336 125 random 5;
#X obj 336 149 / 10;
#X floatatom 336 173 5 0 0 0 - - - 0;
#X floatatom 336 220 5 0 0 0 - - - 0;
#X obj 336 196 + 0.5;
#X obj 1345 935 outlet~;
#X floatatom 419 150 5 0 0 0 - - - 0;
#X floatatom 419 221 5 0 0 0 - - - 0;
#X obj 419 244 t b f;
#X obj 419 268 *;
#X floatatom 419 292 5 0 0 0 - - - 0;
#X obj 419 126 random 30;
#X obj 419 197 / 100;
#X obj 419 172 + 10;
#X floatatom 500 148 5 0 0 0 - - - 0;
#X floatatom 500 219 5 0 0 0 - - - 0;
#X obj 500 242 t b f;
#X obj 500 266 *;
#X floatatom 500 290 5 0 0 0 - - - 0;
#X obj 500 124 random 30;
#X obj 500 195 / 100;
#X obj 500 170 + 10;
#X floatatom 580 152 5 0 0 0 - - - 0;
#X floatatom 580 223 5 0 0 0 - - - 0;
#X obj 580 246 t b f;
#X obj 580 270 *;
#X floatatom 580 294 5 0 0 0 - - - 0;
#X obj 580 128 random 30;
#X obj 580 199 / 100;
#X obj 580 174 + 10;
#X floatatom 661 150 5 0 0 0 - - - 0;
#X floatatom 661 221 5 0 0 0 - - - 0;
#X obj 661 244 t b f;
#X obj 661 268 *;
#X floatatom 661 292 5 0 0 0 - - - 0;
#X obj 661 126 random 30;
#X obj 661 197 / 100;
#X obj 661 172 + 10;
#X floatatom 746 152 5 0 0 0 - - - 0;
#X floatatom 746 223 5 0 0 0 - - - 0;
#X obj 746 246 t b f;
#X obj 746 270 *;
#X floatatom 746 294 5 0 0 0 - - - 0;
#X obj 746 128 random 30;
#X obj 746 199 / 100;
#X obj 746 174 + 10;
#X floatatom 827 150 5 0 0 0 - - - 0;
#X floatatom 827 221 5 0 0 0 - - - 0;
#X obj 827 244 t b f;
#X obj 827 268 *;
#X floatatom 827 292 5 0 0 0 - - - 0;
#X obj 827 126 random 30;
#X obj 827 197 / 100;
#X obj 827 172 + 10;
#X floatatom 907 154 5 0 0 0 - - - 0;
#X floatatom 907 225 5 0 0 0 - - - 0;
#X obj 907 248 t b f;
#X obj 907 272 *;
#X floatatom 907 296 5 0 0 0 - - - 0;
#X obj 907 130 random 30;
#X obj 907 201 / 100;
#X obj 907 176 + 10;
#X floatatom 988 152 5 0 0 0 - - - 0;
#X floatatom 988 223 5 0 0 0 - - - 0;
#X obj 988 246 t b f;
#X obj 988 270 *;
#X floatatom 988 294 5 0 0 0 - - - 0;
#X obj 988 128 random 30;
#X obj 988 199 / 100;
#X obj 988 174 + 10;
#X obj 796 13 inlet;
#X obj 1285 775 adsr, f 19;
#X obj 1418 735 adsr, f 22;
#X obj 1311 693 adsr, f 19;
#X obj 1310 867 +~;
#X obj 1397 866 +~;
#X obj 1344 898 +~;
#X obj 1227 641 bng 19 250 50 0 empty empty empty 0 -10 0 12 #fcfcfc #000000 #000000;
#X text 146 54 frecv fundamentala;
#X text 862 23 schimba setul;
#X msg 1615 266 300;
#X msg 1573 268 200;
#X obj 1594 223 loadbang;
#X obj 1294 922 *~ 5;
#X msg 1700 264 400;
#X msg 1743 264 0.7;
#X obj 1048 19 inlet;
#X obj 1236 134 random 300;
#X obj 1236 158 + 700;
#X floatatom 1236 182 5 0 0 0 - - - 0;
#X obj 1236 205 / 1000;
#X floatatom 1236 229 5 0 0 0 - - - 0;
#X obj 1347 85 bng 19 250 50 0 empty empty empty 0 -10 0 12 #fcfcfc #000000 #000000;
#X floatatom 1315 183 5 0 0 0 - - - 0;
#X obj 1315 206 / 1000;
#X floatatom 1315 230 5 0 0 0 - - - 0;
#X obj 1315 135 random 400;
#X obj 1315 159 + 400;
#X floatatom 1393 182 5 0 0 0 - - - 0;
#X obj 1393 205 / 1000;
#X floatatom 1393 229 5 0 0 0 - - - 0;
#X obj 1393 134 random 300;
#X obj 1393 158 + 300;
#X floatatom 1473 183 5 0 0 0 - - - 0;
#X obj 1473 206 / 1000;
#X floatatom 1473 230 5 0 0 0 - - - 0;
#X obj 1473 135 random 200;
#X obj 1473 159 + 0;
#X msg 1660 266 1500;
#X connect 0 0 1 0;
#X connect 0 0 58 0;
#X connect 1 0 2 0;
#X connect 2 0 72 0;
#X connect 3 0 73 0;
#X connect 4 0 73 1;
#X connect 4 0 74 0;
#X connect 5 0 73 2;
#X connect 5 0 74 0;
#X connect 6 0 73 3;
#X connect 6 0 74 0;
#X connect 7 0 73 4;
#X connect 7 0 74 0;
#X connect 8 0 73 5;
#X connect 8 0 74 0;
#X connect 9 0 73 6;
#X connect 9 0 74 0;
#X connect 10 0 73 7;
#X connect 10 0 74 0;
#X connect 11 0 73 8;
#X connect 11 0 74 0;
#X connect 12 0 11 0;
#X connect 13 0 10 0;
#X connect 14 0 9 0;
#X connect 15 0 8 0;
#X connect 16 0 7 0;
#X connect 17 0 6 0;
#X connect 18 0 5 0;
#X connect 19 0 4 0;
#X connect 20 0 3 0;
#X connect 21 0 20 0;
#X connect 22 0 19 0;
#X connect 23 0 18 0;
#X connect 24 0 17 0;
#X connect 25 0 16 0;
#X connect 26 0 15 0;
#X connect 27 0 14 0;
#X connect 28 0 13 0;
#X connect 29 0 12 0;
#X connect 30 0 25 0;
#X connect 30 0 24 0;
#X connect 30 0 26 0;
#X connect 30 0 27 0;
#X connect 30 0 23 0;
#X connect 30 0 28 0;
#X connect 30 0 29 0;
#X connect 30 0 22 0;
#X connect 30 0 21 0;
#X connect 31 0 32 0;
#X connect 32 0 77 0;
#X connect 33 0 34 0;
#X connect 34 0 78 0;
#X connect 35 0 36 0;
#X connect 36 0 79 0;
#X connect 41 0 46 0;
#X connect 42 0 49 0;
#X connect 43 0 52 0;
#X connect 44 0 55 0;
#X connect 45 0 47 0;
#X connect 46 0 156 1;
#X connect 47 0 46 1;
#X connect 48 0 50 0;
#X connect 49 0 158 1;
#X connect 50 0 49 1;
#X connect 51 0 53 0;
#X connect 52 0 71 1;
#X connect 53 0 52 1;
#X connect 54 0 56 0;
#X connect 55 0 157 1;
#X connect 56 0 55 1;
#X connect 57 0 30 0;
#X connect 58 0 31 0;
#X connect 58 0 59 0;
#X connect 59 0 33 0;
#X connect 59 0 60 0;
#X connect 60 0 35 0;
#X connect 61 0 62 0;
#X connect 62 0 71 2;
#X connect 62 0 157 2;
#X connect 62 0 158 2;
#X connect 62 0 156 2;
#X connect 63 0 64 0;
#X connect 64 0 71 3;
#X connect 64 0 157 3;
#X connect 64 0 158 3;
#X connect 64 0 156 3;
#X connect 65 0 66 0;
#X connect 66 0 71 4;
#X connect 66 0 157 4;
#X connect 66 0 158 4;
#X connect 66 0 156 4;
#X connect 67 0 68 0;
#X connect 68 0 71 5;
#X connect 68 0 157 5;
#X connect 68 0 158 5;
#X connect 68 0 156 5;
#X connect 69 0 70 0;
#X connect 70 0 71 6;
#X connect 70 0 157 6;
#X connect 70 0 156 6;
#X connect 70 0 158 6;
#X connect 71 0 160 1;
#X connect 72 0 37 0;
#X connect 73 0 72 1;
#X connect 73 0 77 1;
#X connect 73 0 78 1;
#X connect 73 0 79 1;
#X connect 74 0 73 0;
#X connect 75 0 76 0;
#X connect 76 0 72 2;
#X connect 76 0 77 2;
#X connect 76 0 78 2;
#X connect 76 0 79 2;
#X connect 77 0 38 0;
#X connect 78 0 39 0;
#X connect 79 0 40 0;
#X connect 80 0 0 0;
#X connect 81 0 84 0;
#X connect 82 0 83 0;
#X connect 82 0 85 0;
#X connect 82 0 96 0;
#X connect 82 0 104 0;
#X connect 82 0 112 0;
#X connect 82 0 120 0;
#X connect 82 0 128 0;
#X connect 82 0 136 0;
#X connect 82 0 144 0;
#X connect 82 0 152 0;
#X connect 82 0 177 0;
#X connect 83 0 81 0;
#X connect 84 0 75 0;
#X connect 85 0 86 0;
#X connect 86 0 87 0;
#X connect 87 0 89 0;
#X connect 88 0 20 0;
#X connect 88 0 94 0;
#X connect 88 0 110 0;
#X connect 89 0 88 0;
#X connect 91 0 98 0;
#X connect 92 0 93 0;
#X connect 93 0 94 0;
#X connect 93 1 94 1;
#X connect 94 0 95 0;
#X connect 95 0 19 0;
#X connect 95 0 102 0;
#X connect 95 0 118 0;
#X connect 96 0 91 0;
#X connect 97 0 92 0;
#X connect 98 0 97 0;
#X connect 99 0 106 0;
#X connect 100 0 101 0;
#X connect 101 0 102 0;
#X connect 101 1 102 1;
#X connect 102 0 103 0;
#X connect 103 0 18 0;
#X connect 104 0 99 0;
#X connect 105 0 100 0;
#X connect 106 0 105 0;
#X connect 107 0 114 0;
#X connect 108 0 109 0;
#X connect 109 0 110 0;
#X connect 109 1 110 1;
#X connect 110 0 111 0;
#X connect 111 0 17 0;
#X connect 111 0 126 0;
#X connect 112 0 107 0;
#X connect 113 0 108 0;
#X connect 114 0 113 0;
#X connect 115 0 122 0;
#X connect 116 0 117 0;
#X connect 117 0 118 0;
#X connect 117 1 118 1;
#X connect 118 0 119 0;
#X connect 119 0 16 0;
#X connect 119 0 142 0;
#X connect 120 0 115 0;
#X connect 121 0 116 0;
#X connect 122 0 121 0;
#X connect 123 0 130 0;
#X connect 124 0 125 0;
#X connect 125 0 126 0;
#X connect 125 1 126 1;
#X connect 126 0 127 0;
#X connect 127 0 134 0;
#X connect 127 0 150 0;
#X connect 127 0 15 0;
#X connect 128 0 123 0;
#X connect 129 0 124 0;
#X connect 130 0 129 0;
#X connect 131 0 138 0;
#X connect 132 0 133 0;
#X connect 133 0 134 0;
#X connect 133 1 134 1;
#X connect 134 0 135 0;
#X connect 135 0 14 0;
#X connect 136 0 131 0;
#X connect 137 0 132 0;
#X connect 138 0 137 0;
#X connect 139 0 146 0;
#X connect 140 0 141 0;
#X connect 141 0 142 0;
#X connect 141 1 142 1;
#X connect 142 0 143 0;
#X connect 143 0 13 0;
#X connect 144 0 139 0;
#X connect 145 0 140 0;
#X connect 146 0 145 0;
#X connect 147 0 154 0;
#X connect 148 0 149 0;
#X connect 149 0 150 0;
#X connect 149 1 150 1;
#X connect 150 0 151 0;
#X connect 151 0 12 0;
#X connect 152 0 147 0;
#X connect 153 0 148 0;
#X connect 154 0 153 0;
#X connect 155 0 82 0;
#X connect 156 0 159 1;
#X connect 157 0 160 0;
#X connect 158 0 159 0;
#X connect 159 0 161 0;
#X connect 160 0 161 1;
#X connect 161 0 168 0;
#X connect 162 0 156 0;
#X connect 162 0 158 0;
#X connect 162 0 157 0;
#X connect 162 0 71 0;
#X connect 165 0 63 0;
#X connect 166 0 61 0;
#X connect 167 0 166 0;
#X connect 167 0 165 0;
#X connect 167 0 193 0;
#X connect 167 0 169 0;
#X connect 167 0 170 0;
#X connect 168 0 90 0;
#X connect 169 0 67 0;
#X connect 170 0 69 0;
#X connect 171 0 162 0;
#X connect 172 0 173 0;
#X connect 173 0 174 0;
#X connect 174 0 175 0;
#X connect 175 0 176 0;
#X connect 176 0 45 0;
#X connect 177 0 172 0;
#X connect 177 0 181 0;
#X connect 177 0 186 0;
#X connect 177 0 191 0;
#X connect 178 0 179 0;
#X connect 179 0 180 0;
#X connect 180 0 48 0;
#X connect 181 0 182 0;
#X connect 182 0 178 0;
#X connect 183 0 184 0;
#X connect 184 0 185 0;
#X connect 185 0 51 0;
#X connect 186 0 187 0;
#X connect 187 0 183 0;
#X connect 188 0 189 0;
#X connect 189 0 190 0;
#X connect 190 0 54 0;
#X connect 191 0 192 0;
#X connect 192 0 188 0;
#X connect 193 0 65 0;
