#N canvas 225 340 845 511 12;
#X obj 84 78 inlet;
#X obj 84 189 netsend -u -b;
#X floatatom 122 122 5 0 0 0 - - - 0;
#X obj 166 85 float \$1;
#X obj 166 57 loadbang;
#X msg 151 147 connect localhost \$1;
#X connect 0 0 1 0;
#X connect 2 0 5 0;
#X connect 3 0 2 0;
#X connect 4 0 3 0;
#X connect 5 0 1 0;
#X coords 0 -1 1 1 60 40 1 100 100;
