#N canvas 606 6 1124 999 12;
#X obj 118 387 random \$1;
#X obj 118 351 t b f;
#X floatatom 118 323 5 0 0 0 - - - 0;
#X floatatom 96 41 5 0 0 0 - - - 0;
#X floatatom 163 40 5 0 0 0 - - - 0;
#X floatatom 230 39 5 0 0 0 - - - 0;
#X floatatom 300 40 5 0 0 0 - - - 0;
#X floatatom 368 39 5 0 0 0 - - - 0;
#X floatatom 434 38 5 0 0 0 - - - 0;
#X floatatom 502 38 5 0 0 0 - - - 0;
#X floatatom 555 38 5 0 0 0 - - - 0;
#X obj 95 79 * 100;
#X obj 164 79 * 100;
#X obj 231 77 * 100;
#X obj 300 77 * 100;
#X obj 368 78 * 100;
#X obj 437 77 * 100;
#X obj 500 76 * 100;
#X obj 560 74 * 100;
#X obj 95 183 expr $f1 + $f2 + $f3 + $f4 + $f5 + $f6 + $f7 + $f8;
#X obj 582 228 bng 19 250 50 0 empty empty empty 0 -10 0 12 #fcfcfc #000000 #000000;
#X obj 270 233 +;
#X obj 334 271 +;
#X obj 376 310 +;
#X obj 458 349 +;
#X obj 500 387 +;
#X obj 568 422 +;
#X obj 597 461 +;
#X floatatom 175 519 5 0 0 0 - - - 0;
#X floatatom 242 518 5 0 0 0 - - - 0;
#X floatatom 309 517 5 0 0 0 - - - 0;
#X floatatom 379 518 5 0 0 0 - - - 0;
#X floatatom 447 517 5 0 0 0 - - - 0;
#X floatatom 513 516 5 0 0 0 - - - 0;
#X floatatom 581 516 5 0 0 0 - - - 0;
#X floatatom 634 516 5 0 0 0 - - - 0;
#X obj 31 40 bng 19 250 50 0 empty empty empty 0 -10 0 12 #fcfcfc #000000 #000000;
#X floatatom 113 444 5 0 0 0 - - - 0;
#X obj 113 610 <;
#X obj 155 575 t b f;
#X obj 125 696 tgl 19 0 empty empty empty 0 -10 0 12 #fcfcfc #000000 #000000 0 1;
#X obj 92 548 t b f;
#X obj 188 641 <;
#X obj 230 606 t b f;
#X obj 201 700 tgl 19 0 empty empty empty 0 -10 0 12 #fcfcfc #000000 #000000 0 1;
#X obj 260 649 <;
#X obj 302 614 t b f;
#X obj 273 700 tgl 19 0 empty empty empty 0 -10 0 12 #fcfcfc #000000 #000000 0 1;
#X obj 326 650 <;
#X obj 368 615 t b f;
#X obj 339 701 tgl 19 0 empty empty empty 0 -10 0 12 #fcfcfc #000000 #000000 0 1;
#X obj 398 658 <;
#X obj 440 623 t b f;
#X obj 411 709 tgl 19 0 empty empty empty 0 -10 0 12 #fcfcfc #000000 #000000 0 1;
#X obj 462 674 <;
#X obj 504 639 t b f;
#X obj 462 708 tgl 19 0 empty empty empty 0 -10 0 12 #fcfcfc #000000 #000000 0 1;
#X obj 528 675 <;
#X obj 570 640 t b f;
#X obj 528 709 tgl 19 0 empty empty empty 0 -10 0 12 #fcfcfc #000000 #000000 0 1;
#X obj 600 683 <;
#X obj 642 648 t b f;
#X obj 600 717 tgl 19 0 empty empty empty 0 -10 0 12 #fcfcfc #000000 #000000 0 1;
#X floatatom 119 739 5 0 0 0 - - - 0;
#X floatatom 196 743 5 0 0 0 - - - 0;
#X floatatom 272 745 5 0 0 0 - - - 0;
#X floatatom 339 747 5 0 0 0 - - - 0;
#X floatatom 398 744 5 0 0 0 - - - 0;
#X floatatom 475 748 5 0 0 0 - - - 0;
#X floatatom 551 750 5 0 0 0 - - - 0;
#X floatatom 618 752 5 0 0 0 - - - 0;
#X obj 113 787 expr $f1 + $f2 + $f3 + $f4 + $f5 + $f6 + $f7 + $f8;
#X floatatom 113 822 5 0 0 0 - - - 0;
#X obj 113 854 t b f;
#X floatatom 113 920 5 0 0 0 - - - 0;
#X obj 113 891 expr 8 - $f1;
#X obj 34 7 inlet;
#X obj 94 9 inlet;
#X obj 162 5 inlet;
#X obj 222 7 inlet;
#X obj 300 6 inlet;
#X obj 360 8 inlet;
#X obj 428 4 inlet;
#X obj 488 6 inlet;
#X obj 558 7 inlet;
#X obj 112 953 outlet;
#X connect 0 0 37 0;
#X connect 1 0 0 0;
#X connect 1 1 0 1;
#X connect 2 0 1 0;
#X connect 3 0 11 0;
#X connect 4 0 12 0;
#X connect 5 0 13 0;
#X connect 6 0 14 0;
#X connect 7 0 15 0;
#X connect 8 0 16 0;
#X connect 9 0 17 0;
#X connect 10 0 18 0;
#X connect 11 0 19 0;
#X connect 11 0 21 0;
#X connect 11 0 28 0;
#X connect 12 0 19 1;
#X connect 12 0 20 0;
#X connect 12 0 21 1;
#X connect 13 0 19 2;
#X connect 13 0 20 0;
#X connect 13 0 22 1;
#X connect 14 0 19 3;
#X connect 14 0 20 0;
#X connect 14 0 23 1;
#X connect 15 0 19 4;
#X connect 15 0 20 0;
#X connect 15 0 24 1;
#X connect 16 0 19 5;
#X connect 16 0 20 0;
#X connect 16 0 25 1;
#X connect 17 0 19 6;
#X connect 17 0 20 0;
#X connect 17 0 26 1;
#X connect 18 0 19 7;
#X connect 18 0 20 0;
#X connect 18 0 27 1;
#X connect 19 0 2 0;
#X connect 20 0 19 0;
#X connect 20 0 21 0;
#X connect 20 0 22 0;
#X connect 20 0 23 0;
#X connect 20 0 24 0;
#X connect 20 0 25 0;
#X connect 20 0 26 0;
#X connect 20 0 27 0;
#X connect 21 0 22 0;
#X connect 21 0 29 0;
#X connect 22 0 23 0;
#X connect 22 0 30 0;
#X connect 23 0 24 0;
#X connect 23 0 31 0;
#X connect 24 0 25 0;
#X connect 24 0 32 0;
#X connect 25 0 26 0;
#X connect 25 0 33 0;
#X connect 26 0 27 0;
#X connect 26 0 34 0;
#X connect 27 0 35 0;
#X connect 28 0 39 0;
#X connect 29 0 43 0;
#X connect 30 0 46 0;
#X connect 31 0 49 0;
#X connect 32 0 52 0;
#X connect 33 0 55 0;
#X connect 34 0 58 0;
#X connect 35 0 61 0;
#X connect 36 0 0 0;
#X connect 37 0 41 0;
#X connect 38 0 40 0;
#X connect 39 0 38 0;
#X connect 39 1 38 1;
#X connect 40 0 63 0;
#X connect 41 0 38 0;
#X connect 41 0 42 0;
#X connect 41 0 45 0;
#X connect 41 0 48 0;
#X connect 41 0 51 0;
#X connect 41 0 54 0;
#X connect 41 0 57 0;
#X connect 41 0 60 0;
#X connect 41 1 38 0;
#X connect 41 1 42 0;
#X connect 41 1 45 0;
#X connect 41 1 48 0;
#X connect 41 1 51 0;
#X connect 41 1 54 0;
#X connect 41 1 57 0;
#X connect 41 1 60 0;
#X connect 42 0 44 0;
#X connect 43 0 42 0;
#X connect 43 1 42 1;
#X connect 44 0 64 0;
#X connect 45 0 47 0;
#X connect 46 0 45 0;
#X connect 46 1 45 1;
#X connect 47 0 65 0;
#X connect 48 0 50 0;
#X connect 49 0 48 0;
#X connect 49 1 48 1;
#X connect 50 0 66 0;
#X connect 51 0 53 0;
#X connect 52 0 51 0;
#X connect 52 1 51 1;
#X connect 53 0 67 0;
#X connect 54 0 56 0;
#X connect 55 0 54 0;
#X connect 55 1 54 1;
#X connect 56 0 68 0;
#X connect 57 0 59 0;
#X connect 58 0 57 0;
#X connect 58 1 57 1;
#X connect 59 0 69 0;
#X connect 60 0 62 0;
#X connect 61 0 60 0;
#X connect 61 1 60 1;
#X connect 62 0 70 0;
#X connect 63 0 71 0;
#X connect 64 0 71 1;
#X connect 65 0 71 2;
#X connect 66 0 71 3;
#X connect 67 0 71 4;
#X connect 68 0 71 5;
#X connect 69 0 71 6;
#X connect 70 0 71 7;
#X connect 71 0 72 0;
#X connect 72 0 73 0;
#X connect 73 0 75 0;
#X connect 73 1 75 0;
#X connect 74 0 85 0;
#X connect 75 0 74 0;
#X connect 76 0 36 0;
#X connect 77 0 3 0;
#X connect 78 0 4 0;
#X connect 79 0 5 0;
#X connect 80 0 6 0;
#X connect 81 0 7 0;
#X connect 82 0 8 0;
#X connect 83 0 9 0;
#X connect 84 0 10 0;
