#N canvas 177 0 1124 957 12;
#X floatatom 187 97 5 0 0 0 - - - 0;
#X obj 379 249 expr $f1 + $f2 + $f3 + $f4 + $f5 + $f6 + $f7 + $f8;
#X floatatom 376 280 5 0 0 0 - - - 0;
#X obj 325 164 t b f;
#X obj 373 163 t b f;
#X obj 422 163 t b f;
#X obj 470 162 t b f;
#X obj 515 164 t b f;
#X obj 563 163 t b f;
#X obj 612 163 t b f;
#X floatatom 239 97 5 0 0 0 - - - 0;
#X floatatom 292 95 5 0 0 0 - - - 0;
#X floatatom 336 94 5 0 0 0 - - - 0;
#X floatatom 383 96 5 0 0 0 - - - 0;
#X floatatom 430 97 5 0 0 0 - - - 0;
#X floatatom 478 97 5 0 0 0 - - - 0;
#X floatatom 529 94 5 0 0 0 - - - 0;
#X obj 29 429 expr $f1 / $f2;
#X obj 376 306 s total;
#X obj 124 354 r total;
#X obj 123 385 t b f;
#X floatatom 28 465 5 0 0 0 - - - 0;
#X obj 28 499 s w1;
#X obj 189 131 s f1;
#X obj 239 132 s f2;
#X obj 287 131 s f3;
#X obj 337 132 s f4;
#X obj 385 133 s f5;
#X obj 435 134 s f6;
#X obj 483 133 s f7;
#X obj 533 134 s f8;
#X obj 25 378 r f1;
#X obj 200 436 expr $f1 / $f2;
#X obj 295 361 r total;
#X obj 294 392 t b f;
#X floatatom 199 472 5 0 0 0 - - - 0;
#X obj 377 430 expr $f1 / $f2;
#X obj 472 355 r total;
#X obj 471 386 t b f;
#X floatatom 376 466 5 0 0 0 - - - 0;
#X obj 548 437 expr $f1 / $f2;
#X obj 643 362 r total;
#X obj 642 393 t b f;
#X floatatom 547 473 5 0 0 0 - - - 0;
#X obj 30 624 expr $f1 / $f2;
#X obj 125 549 r total;
#X obj 124 580 t b f;
#X floatatom 29 660 5 0 0 0 - - - 0;
#X obj 201 631 expr $f1 / $f2;
#X obj 296 556 r total;
#X obj 295 587 t b f;
#X floatatom 200 667 5 0 0 0 - - - 0;
#X obj 378 625 expr $f1 / $f2;
#X obj 473 550 r total;
#X obj 472 581 t b f;
#X floatatom 377 661 5 0 0 0 - - - 0;
#X obj 549 632 expr $f1 / $f2;
#X obj 644 557 r total;
#X obj 643 588 t b f;
#X floatatom 548 668 5 0 0 0 - - - 0;
#X obj 196 385 r f2;
#X obj 373 379 r f3;
#X obj 544 386 r f4;
#X obj 26 573 r f5;
#X obj 197 580 r f6;
#X obj 374 574 r f7;
#X obj 545 581 r f8;
#X obj 199 506 s w2;
#X obj 376 500 s w3;
#X obj 547 507 s w4;
#X obj 29 694 s w5;
#X obj 200 701 s w6;
#X obj 377 695 s w7;
#X obj 548 702 s w8;
#X obj 93 741 r w1;
#X obj 155 735 r w2;
#X obj 202 736 r w3;
#X obj 250 738 r w4;
#X obj 295 738 r w5;
#X obj 343 739 r w6;
#X obj 390 740 r w7;
#X obj 438 742 r w8;
#X obj 52 814 outlet;
#X obj 179 34 inlet;
#X obj 231 34 inlet;
#X obj 288 31 inlet;
#X obj 340 31 inlet;
#X obj 394 30 inlet;
#X obj 446 30 inlet;
#X obj 503 27 inlet;
#X obj 555 27 inlet;
#X obj 183 66 + 1;
#X obj 242 65 + 1;
#X obj 287 64 + 1;
#X obj 346 63 + 1;
#X obj 387 63 + 1;
#X obj 445 62 + 1;
#X obj 491 61 + 1;
#X obj 550 60 + 1;
#X obj 113 814 outlet;
#X obj 171 819 outlet;
#X obj 232 819 outlet;
#X obj 294 822 outlet;
#X obj 355 822 outlet;
#X obj 413 827 outlet;
#X obj 474 827 outlet;
#X connect 0 0 1 0;
#X connect 0 0 23 0;
#X connect 1 0 2 0;
#X connect 2 0 18 0;
#X connect 3 0 1 0;
#X connect 3 1 1 1;
#X connect 4 0 1 0;
#X connect 4 1 1 2;
#X connect 5 0 1 0;
#X connect 5 1 1 3;
#X connect 6 0 1 0;
#X connect 6 1 1 4;
#X connect 7 0 1 0;
#X connect 7 1 1 5;
#X connect 8 0 1 0;
#X connect 8 1 1 6;
#X connect 9 0 1 0;
#X connect 9 1 1 7;
#X connect 10 0 3 0;
#X connect 10 0 24 0;
#X connect 11 0 4 0;
#X connect 11 0 25 0;
#X connect 12 0 5 0;
#X connect 12 0 26 0;
#X connect 13 0 6 0;
#X connect 13 0 27 0;
#X connect 14 0 7 0;
#X connect 14 0 28 0;
#X connect 15 0 8 0;
#X connect 15 0 29 0;
#X connect 16 0 9 0;
#X connect 16 0 30 0;
#X connect 17 0 21 0;
#X connect 19 0 20 0;
#X connect 20 0 17 0;
#X connect 20 1 17 1;
#X connect 21 0 22 0;
#X connect 31 0 17 0;
#X connect 32 0 35 0;
#X connect 33 0 34 0;
#X connect 34 0 32 0;
#X connect 34 1 32 1;
#X connect 35 0 67 0;
#X connect 36 0 39 0;
#X connect 37 0 38 0;
#X connect 38 0 36 0;
#X connect 38 1 36 1;
#X connect 39 0 68 0;
#X connect 40 0 43 0;
#X connect 41 0 42 0;
#X connect 42 0 40 0;
#X connect 42 1 40 1;
#X connect 43 0 69 0;
#X connect 44 0 47 0;
#X connect 45 0 46 0;
#X connect 46 0 44 0;
#X connect 46 1 44 1;
#X connect 47 0 70 0;
#X connect 48 0 51 0;
#X connect 49 0 50 0;
#X connect 50 0 48 0;
#X connect 50 1 48 1;
#X connect 51 0 71 0;
#X connect 52 0 55 0;
#X connect 53 0 54 0;
#X connect 54 0 52 0;
#X connect 54 1 52 1;
#X connect 55 0 72 0;
#X connect 56 0 59 0;
#X connect 57 0 58 0;
#X connect 58 0 56 0;
#X connect 58 1 56 1;
#X connect 59 0 73 0;
#X connect 60 0 32 0;
#X connect 61 0 36 0;
#X connect 62 0 40 0;
#X connect 63 0 44 0;
#X connect 64 0 48 0;
#X connect 65 0 52 0;
#X connect 66 0 56 0;
#X connect 74 0 82 0;
#X connect 75 0 99 0;
#X connect 76 0 100 0;
#X connect 77 0 101 0;
#X connect 78 0 102 0;
#X connect 79 0 103 0;
#X connect 80 0 104 0;
#X connect 81 0 105 0;
#X connect 83 0 91 0;
#X connect 84 0 92 0;
#X connect 85 0 93 0;
#X connect 86 0 94 0;
#X connect 87 0 95 0;
#X connect 88 0 96 0;
#X connect 89 0 97 0;
#X connect 90 0 98 0;
#X connect 91 0 0 0;
#X connect 92 0 10 0;
#X connect 93 0 11 0;
#X connect 94 0 12 0;
#X connect 95 0 13 0;
#X connect 96 0 14 0;
#X connect 97 0 15 0;
#X connect 98 0 16 0;
